<mxfile host="app.diagrams.net" modified="2023-04-24T19:00:08.216Z" agent="Mozilla/5.0 (Windows NT 10.0; Win64; x64) AppleWebKit/537.36 (KHTML, like Gecko) Chrome/112.0.0.0 Safari/537.36 Edg/112.0.1722.39" etag="TnW4XhFwBulfaBJ6B40Y" version="21.2.1" type="github">
  <diagram id="C5RBs43oDa-KdzZeNtuy" name="Page-1">
    <mxGraphModel dx="2844" dy="1148" grid="1" gridSize="10" guides="1" tooltips="1" connect="1" arrows="1" fold="1" page="1" pageScale="1" pageWidth="827" pageHeight="1169" math="0" shadow="0">
      <root>
        <mxCell id="WIyWlLk6GJQsqaUBKTNV-0" />
        <mxCell id="WIyWlLk6GJQsqaUBKTNV-1" parent="WIyWlLk6GJQsqaUBKTNV-0" />
        <mxCell id="wQArnLfsjtM2a3y7z7pR-0" value="" style="shape=image;verticalLabelPosition=bottom;labelBackgroundColor=default;verticalAlign=top;aspect=fixed;imageAspect=0;image=data:image/svg+xml,PHN2ZyB4bWxuczp4bGluaz0iaHR0cDovL3d3dy53My5vcmcvMTk5OS94bGluayIgeG1sbnM9Imh0dHA6Ly93d3cudzMub3JnLzIwMDAvc3ZnIiB6b29tQW5kUGFuPSJtYWduaWZ5IiB3aWR0aD0iMjY1OSIgdmlld0JveD0iNyA3IDI2NTkgMzY4LjI2NTU5NDQ4MjQyMTkiIHZlcnNpb249IjEuMSIgc3R5bGU9IndpZHRoOjI2NzNweDtoZWlnaHQ6MzgycHg7YmFja2dyb3VuZDojRkZGRkZGOyIgcHJlc2VydmVBc3BlY3RSYXRpbz0ibm9uZSIgaGVpZ2h0PSIzNjguMjY1NTk0NDgyNDIxOSI+PGRlZnMvPjxnPjxnIGlkPSJlbGVtX1VzZXIiPjxyZWN0IHk9IjE0OCIgeD0iNzcxIiB3aWR0aD0iMzM1IiBzdHlsZT0ic3Ryb2tlOiMxODE4MTg7c3Ryb2tlLXdpZHRoOjAuNTsiIHJ5PSIyLjUiIHJ4PSIyLjUiIGlkPSJVc2VyIiBoZWlnaHQ9IjIyNy4yNjU2IiBmaWxsPSIjRjFGMUYxIi8+PGVsbGlwc2Ugc3R5bGU9InN0cm9rZTojMTgxODE4O3N0cm9rZS13aWR0aDoxLjA7IiByeT0iMTEiIHJ4PSIxMSIgZmlsbD0iI0FERDFCMiIgY3k9IjE2NCIgY3g9IjkxOC43NSIvPjxwYXRoIGZpbGw9IiMwMDAwMDAiIGQ9Ik05MjEuMDkzOCwxNTkuNjcxOSBDOTIwLjE1NjMsMTU5LjIzNDQgOTE5LjU2MjUsMTU5LjA5MzggOTE4LjY4NzUsMTU5LjA5MzggQzkxNi4wNjI1LDE1OS4wOTM4IDkxNC4wNjI1LDE2MS4xNzE5IDkxNC4wNjI1LDE2My44OTA2IEw5MTQuMDYyNSwxNjUuMDE1NiBDOTE0LjA2MjUsMTY3LjU5MzggOTE2LjE3MTksMTY5LjQ4NDQgOTE5LjA2MjUsMTY5LjQ4NDQgQzkyMC4yODEzLDE2OS40ODQ0IDkyMS40Mzc1LDE2OS4xODc1IDkyMi4xODc1LDE2OC42NDA2IEM5MjIuNzY1NiwxNjguMjM0NCA5MjMuMDkzOCwxNjcuNzgxMyA5MjMuMDkzOCwxNjcuMzkwNiBDOTIzLjA5MzgsMTY2LjkzNzUgOTIyLjcwMzEsMTY2LjU0NjkgOTIyLjIzNDQsMTY2LjU0NjkgQzkyMi4wMTU2LDE2Ni41NDY5IDkyMS44MTI1LDE2Ni42MjUgOTIxLjYyNSwxNjYuODEyNSBDOTIxLjE3MTksMTY3LjI5NjkgOTIxLjE3MTksMTY3LjI5NjkgOTIwLjk4NDQsMTY3LjM5MDYgQzkyMC41NjI1LDE2Ny42NTYzIDkxOS44NzUsMTY3Ljc4MTMgOTE5LjEwOTQsMTY3Ljc4MTMgQzkxNy4wNjI1LDE2Ny43ODEzIDkxNS43NjU2LDE2Ni42ODc1IDkxNS43NjU2LDE2NC45ODQ0IEw5MTUuNzY1NiwxNjMuODkwNiBDOTE1Ljc2NTYsMTYyLjEwOTQgOTE3LjAxNTYsMTYwLjc5NjkgOTE4Ljc1LDE2MC43OTY5IEM5MTkuMzI4MSwxNjAuNzk2OSA5MTkuOTM3NSwxNjAuOTUzMSA5MjAuNDA2MywxNjEuMjAzMSBDOTIwLjg5MDYsMTYxLjQ4NDQgOTIxLjA2MjUsMTYxLjcwMzEgOTIxLjE1NjMsMTYyLjEwOTQgQzkyMS4yMTg4LDE2Mi41MTU2IDkyMS4yNSwxNjIuNjQwNiA5MjEuMzkwNiwxNjIuNzY1NiBDOTIxLjUzMTMsMTYyLjkwNjMgOTIxLjc2NTYsMTYzLjAxNTYgOTIxLjk4NDQsMTYzLjAxNTYgQzkyMi4yNSwxNjMuMDE1NiA5MjIuNTE1NiwxNjIuODc1IDkyMi42ODc1LDE2Mi42NTYzIEM5MjIuNzk2OSwxNjIuNSA5MjIuODI4MSwxNjIuMzEyNSA5MjIuODI4MSwxNjEuODkwNiBMOTIyLjgyODEsMTYwLjQ2ODggQzkyMi44MjgxLDE2MC4wMzEzIDkyMi44MTI1LDE1OS45MDYzIDkyMi43MTg4LDE1OS43NSBDOTIyLjU2MjUsMTU5LjQ4NDQgOTIyLjI4MTMsMTU5LjM0MzggOTIxLjk4NDQsMTU5LjM0MzggQzkyMS42ODc1LDE1OS4zNDM4IDkyMS40ODQ0LDE1OS40Mzc1IDkyMS4yNjU2LDE1OS43NSBMOTIxLjA5MzgsMTU5LjY3MTkgWiIvPjx0ZXh0IHk9IjE2OC44NDY3IiB4PSI5MzkuMjUiIHRleHRMZW5ndGg9IjMxIiBsZW5ndGhBZGp1c3Q9InNwYWNpbmciIGZvbnQtc2l6ZT0iMTQiIGZvbnQtZmFtaWx5PSJzYW5zLXNlcmlmIiBmaWxsPSIjMDAwMDAwIj5Vc2VyPC90ZXh0PjxsaW5lIHkyPSIxODAiIHkxPSIxODAiIHgyPSIxMTA1IiB4MT0iNzcyIiBzdHlsZT0ic3Ryb2tlOiMxODE4MTg7c3Ryb2tlLXdpZHRoOjAuNTsiLz48cmVjdCB5PSIxOTAuNjQ4NCIgeD0iNzc5IiB3aWR0aD0iNiIgc3R5bGU9InN0cm9rZTojQzgyOTMwO3N0cm9rZS13aWR0aDoxLjA7IiBoZWlnaHQ9IjYiIGZpbGw9Im5vbmUiLz48dGV4dCB5PSIxOTYuOTk1MSIgeD0iNzkxIiB0ZXh0TGVuZ3RoPSIxMjEiIGxlbmd0aEFkanVzdD0ic3BhY2luZyIgZm9udC1zaXplPSIxNCIgZm9udC1mYW1pbHk9InNhbnMtc2VyaWYiIGZpbGw9IiMwMDAwMDAiPnVzZXJuYW1lOiBzdHJpbmc8L3RleHQ+PHJlY3QgeT0iMjA2Ljk0NTMiIHg9Ijc3OSIgd2lkdGg9IjYiIHN0eWxlPSJzdHJva2U6I0M4MjkzMDtzdHJva2Utd2lkdGg6MS4wOyIgaGVpZ2h0PSI2IiBmaWxsPSJub25lIi8+PHRleHQgeT0iMjEzLjI5MiIgeD0iNzkxIiB0ZXh0TGVuZ3RoPSIxMTgiIGxlbmd0aEFkanVzdD0ic3BhY2luZyIgZm9udC1zaXplPSIxNCIgZm9udC1mYW1pbHk9InNhbnMtc2VyaWYiIGZpbGw9IiMwMDAwMDAiPnBhc3N3b3JkOiBzdHJpbmc8L3RleHQ+PHJlY3QgeT0iMjIzLjI0MjIiIHg9Ijc3OSIgd2lkdGg9IjYiIHN0eWxlPSJzdHJva2U6I0M4MjkzMDtzdHJva2Utd2lkdGg6MS4wOyIgaGVpZ2h0PSI2IiBmaWxsPSJub25lIi8+PHRleHQgeT0iMjI5LjU4ODkiIHg9Ijc5MSIgdGV4dExlbmd0aD0iMTg5IiBsZW5ndGhBZGp1c3Q9InNwYWNpbmciIGZvbnQtc2l6ZT0iMTQiIGZvbnQtZmFtaWx5PSJzYW5zLXNlcmlmIiBmaWxsPSIjMDAwMDAwIj5mb2xsb3dlZF91c2VyczogbGlzdCZsdDtVc2VyJmd0OzwvdGV4dD48bGluZSB5Mj0iMjM2Ljg5MDYiIHkxPSIyMzYuODkwNiIgeDI9IjExMDUiIHgxPSI3NzIiIHN0eWxlPSJzdHJva2U6IzE4MTgxODtzdHJva2Utd2lkdGg6MC41OyIvPjxlbGxpcHNlIHN0eWxlPSJzdHJva2U6IzAzODA0ODtzdHJva2Utd2lkdGg6MS4wOyIgcnk9IjMiIHJ4PSIzIiBmaWxsPSIjODRCRTg0IiBjeT0iMjUwLjUzOTEiIGN4PSI3ODIiLz48dGV4dCB5PSIyNTMuODg1NyIgeD0iNzkxIiB0ZXh0TGVuZ3RoPSI0NSIgbGVuZ3RoQWRqdXN0PSJzcGFjaW5nIiBmb250LXNpemU9IjE0IiBmb250LWZhbWlseT0ic2Fucy1zZXJpZiIgZmlsbD0iIzAwMDAwMCI+bG9naW4oKTwvdGV4dD48ZWxsaXBzZSBzdHlsZT0ic3Ryb2tlOiMwMzgwNDg7c3Ryb2tlLXdpZHRoOjEuMDsiIHJ5PSIzIiByeD0iMyIgZmlsbD0iIzg0QkU4NCIgY3k9IjI2Ni44MzU5IiBjeD0iNzgyIi8+PHRleHQgeT0iMjcwLjE4MjYiIHg9Ijc5MSIgdGV4dExlbmd0aD0iNTYiIGxlbmd0aEFkanVzdD0ic3BhY2luZyIgZm9udC1zaXplPSIxNCIgZm9udC1mYW1pbHk9InNhbnMtc2VyaWYiIGZpbGw9IiMwMDAwMDAiPmxvZ291dCgpPC90ZXh0PjxlbGxpcHNlIHN0eWxlPSJzdHJva2U6IzAzODA0ODtzdHJva2Utd2lkdGg6MS4wOyIgcnk9IjMiIHJ4PSIzIiBmaWxsPSIjODRCRTg0IiBjeT0iMjgzLjEzMjgiIGN4PSI3ODIiLz48dGV4dCB5PSIyODYuNDc5NSIgeD0iNzkxIiB0ZXh0TGVuZ3RoPSIxMjUiIGxlbmd0aEFkanVzdD0ic3BhY2luZyIgZm9udC1zaXplPSIxNCIgZm9udC1mYW1pbHk9InNhbnMtc2VyaWYiIGZpbGw9IiMwMDAwMDAiPnBvc3QodGV4dDogc3RyaW5nKTwvdGV4dD48ZWxsaXBzZSBzdHlsZT0ic3Ryb2tlOiMwMzgwNDg7c3Ryb2tlLXdpZHRoOjEuMDsiIHJ5PSIzIiByeD0iMyIgZmlsbD0iIzg0QkU4NCIgY3k9IjI5OS40Mjk3IiBjeD0iNzgyIi8+PHRleHQgeT0iMzAyLjc3NjQiIHg9Ijc5MSIgdGV4dExlbmd0aD0iMTIzIiBsZW5ndGhBZGp1c3Q9InNwYWNpbmciIGZvbnQtc2l6ZT0iMTQiIGZvbnQtZmFtaWx5PSJzYW5zLXNlcmlmIiBmaWxsPSIjMDAwMDAwIj5mb2xsb3codXNlcjogVXNlcik8L3RleHQ+PGVsbGlwc2Ugc3R5bGU9InN0cm9rZTojMDM4MDQ4O3N0cm9rZS13aWR0aDoxLjA7IiByeT0iMyIgcng9IjMiIGZpbGw9IiM4NEJFODQiIGN5PSIzMTUuNzI2NiIgY3g9Ijc4MiIvPjx0ZXh0IHk9IjMxOS4wNzMyIiB4PSI3OTEiIHRleHRMZW5ndGg9IjE3NSIgbGVuZ3RoQWRqdXN0PSJzcGFjaW5nIiBmb250LXNpemU9IjE0IiBmb250LWZhbWlseT0ic2Fucy1zZXJpZiIgZmlsbD0iIzAwMDAwMCI+dXB2b3RlX3Bvc3QocG9zdDogUG9zdCk8L3RleHQ+PGVsbGlwc2Ugc3R5bGU9InN0cm9rZTojMDM4MDQ4O3N0cm9rZS13aWR0aDoxLjA7IiByeT0iMyIgcng9IjMiIGZpbGw9IiM4NEJFODQiIGN5PSIzMzIuMDIzNCIgY3g9Ijc4MiIvPjx0ZXh0IHk9IjMzNS4zNzAxIiB4PSI3OTEiIHRleHRMZW5ndGg9IjE5NSIgbGVuZ3RoQWRqdXN0PSJzcGFjaW5nIiBmb250LXNpemU9IjE0IiBmb250LWZhbWlseT0ic2Fucy1zZXJpZiIgZmlsbD0iIzAwMDAwMCI+ZG93bnZvdGVfcG9zdChwb3N0OiBQb3N0KTwvdGV4dD48ZWxsaXBzZSBzdHlsZT0ic3Ryb2tlOiMwMzgwNDg7c3Ryb2tlLXdpZHRoOjEuMDsiIHJ5PSIzIiByeD0iMyIgZmlsbD0iIzg0QkU4NCIgY3k9IjM0OC4zMjAzIiBjeD0iNzgyIi8+PHRleHQgeT0iMzUxLjY2NyIgeD0iNzkxIiB0ZXh0TGVuZ3RoPSIyODkiIGxlbmd0aEFkanVzdD0ic3BhY2luZyIgZm9udC1zaXplPSIxNCIgZm9udC1mYW1pbHk9InNhbnMtc2VyaWYiIGZpbGw9IiMwMDAwMDAiPnVwdm90ZV9jb21tZW50KGNvbW1lbnQ6IENvbW1lbnQpPC90ZXh0PjxlbGxpcHNlIHN0eWxlPSJzdHJva2U6IzAzODA0ODtzdHJva2Utd2lkdGg6MS4wOyIgcnk9IjMiIHJ4PSIzIiBmaWxsPSIjODRCRTg0IiBjeT0iMzY0LjYxNzIiIGN4PSI3ODIiLz48dGV4dCB5PSIzNjcuOTYzOSIgeD0iNzkxIiB0ZXh0TGVuZ3RoPSIzMDkiIGxlbmd0aEFkanVzdD0ic3BhY2luZyIgZm9udC1zaXplPSIxNCIgZm9udC1mYW1pbHk9InNhbnMtc2VyaWYiIGZpbGw9IiMwMDAwMDAiPmRvd252b3RlX2NvbW1lbnQoY29tbWVudDogQ29tbWVudCk8L3RleHQ+PC9nPjxnIGlkPSJlbGVtX1Bvc3QiPjxyZWN0IHk9IjE2NCIgeD0iMTkyNS41IiB3aWR0aD0iMjkwIiBzdHlsZT0ic3Ryb2tlOiMxODE4MTg7c3Ryb2tlLXdpZHRoOjAuNTsiIHJ5PSIyLjUiIHJ4PSIyLjUiIGlkPSJQb3N0IiBoZWlnaHQ9IjE5NC42NzE5IiBmaWxsPSIjRjFGMUYxIi8+PGVsbGlwc2Ugc3R5bGU9InN0cm9rZTojMTgxODE4O3N0cm9rZS13aWR0aDoxLjA7IiByeT0iMTEiIHJ4PSIxMSIgZmlsbD0iI0FERDFCMiIgY3k9IjE4MCIgY3g9IjIwNTAuMjUiLz48cGF0aCBmaWxsPSIjMDAwMDAwIiBkPSJNMjA1Mi41OTM4LDE3NS42NzE5IEMyMDUxLjY1NjMsMTc1LjIzNDQgMjA1MS4wNjI1LDE3NS4wOTM4IDIwNTAuMTg3NSwxNzUuMDkzOCBDMjA0Ny41NjI1LDE3NS4wOTM4IDIwNDUuNTYyNSwxNzcuMTcxOSAyMDQ1LjU2MjUsMTc5Ljg5MDYgTDIwNDUuNTYyNSwxODEuMDE1NiBDMjA0NS41NjI1LDE4My41OTM4IDIwNDcuNjcxOSwxODUuNDg0NCAyMDUwLjU2MjUsMTg1LjQ4NDQgQzIwNTEuNzgxMywxODUuNDg0NCAyMDUyLjkzNzUsMTg1LjE4NzUgMjA1My42ODc1LDE4NC42NDA2IEMyMDU0LjI2NTYsMTg0LjIzNDQgMjA1NC41OTM4LDE4My43ODEzIDIwNTQuNTkzOCwxODMuMzkwNiBDMjA1NC41OTM4LDE4Mi45Mzc1IDIwNTQuMjAzMSwxODIuNTQ2OSAyMDUzLjczNDQsMTgyLjU0NjkgQzIwNTMuNTE1NiwxODIuNTQ2OSAyMDUzLjMxMjUsMTgyLjYyNSAyMDUzLjEyNSwxODIuODEyNSBDMjA1Mi42NzE5LDE4My4yOTY5IDIwNTIuNjcxOSwxODMuMjk2OSAyMDUyLjQ4NDQsMTgzLjM5MDYgQzIwNTIuMDYyNSwxODMuNjU2MyAyMDUxLjM3NSwxODMuNzgxMyAyMDUwLjYwOTQsMTgzLjc4MTMgQzIwNDguNTYyNSwxODMuNzgxMyAyMDQ3LjI2NTYsMTgyLjY4NzUgMjA0Ny4yNjU2LDE4MC45ODQ0IEwyMDQ3LjI2NTYsMTc5Ljg5MDYgQzIwNDcuMjY1NiwxNzguMTA5NCAyMDQ4LjUxNTYsMTc2Ljc5NjkgMjA1MC4yNSwxNzYuNzk2OSBDMjA1MC44MjgxLDE3Ni43OTY5IDIwNTEuNDM3NSwxNzYuOTUzMSAyMDUxLjkwNjMsMTc3LjIwMzEgQzIwNTIuMzkwNiwxNzcuNDg0NCAyMDUyLjU2MjUsMTc3LjcwMzEgMjA1Mi42NTYzLDE3OC4xMDk0IEMyMDUyLjcxODgsMTc4LjUxNTYgMjA1Mi43NSwxNzguNjQwNiAyMDUyLjg5MDYsMTc4Ljc2NTYgQzIwNTMuMDMxMywxNzguOTA2MyAyMDUzLjI2NTYsMTc5LjAxNTYgMjA1My40ODQ0LDE3OS4wMTU2IEMyMDUzLjc1LDE3OS4wMTU2IDIwNTQuMDE1NiwxNzguODc1IDIwNTQuMTg3NSwxNzguNjU2MyBDMjA1NC4yOTY5LDE3OC41IDIwNTQuMzI4MSwxNzguMzEyNSAyMDU0LjMyODEsMTc3Ljg5MDYgTDIwNTQuMzI4MSwxNzYuNDY4OCBDMjA1NC4zMjgxLDE3Ni4wMzEzIDIwNTQuMzEyNSwxNzUuOTA2MyAyMDU0LjIxODgsMTc1Ljc1IEMyMDU0LjA2MjUsMTc1LjQ4NDQgMjA1My43ODEzLDE3NS4zNDM4IDIwNTMuNDg0NCwxNzUuMzQzOCBDMjA1My4xODc1LDE3NS4zNDM4IDIwNTIuOTg0NCwxNzUuNDM3NSAyMDUyLjc2NTYsMTc1Ljc1IEwyMDUyLjU5MzgsMTc1LjY3MTkgWiIvPjx0ZXh0IHk9IjE4NC44NDY3IiB4PSIyMDcwLjc1IiB0ZXh0TGVuZ3RoPSIzMiIgbGVuZ3RoQWRqdXN0PSJzcGFjaW5nIiBmb250LXNpemU9IjE0IiBmb250LWZhbWlseT0ic2Fucy1zZXJpZiIgZmlsbD0iIzAwMDAwMCI+UG9zdDwvdGV4dD48bGluZSB5Mj0iMTk2IiB5MT0iMTk2IiB4Mj0iMjIxNC41IiB4MT0iMTkyNi41IiBzdHlsZT0ic3Ryb2tlOiMxODE4MTg7c3Ryb2tlLXdpZHRoOjAuNTsiLz48cmVjdCB5PSIyMDYuNjQ4NCIgeD0iMTkzMy41IiB3aWR0aD0iNiIgc3R5bGU9InN0cm9rZTojQzgyOTMwO3N0cm9rZS13aWR0aDoxLjA7IiBoZWlnaHQ9IjYiIGZpbGw9Im5vbmUiLz48dGV4dCB5PSIyMTIuOTk1MSIgeD0iMTk0NS41IiB0ZXh0TGVuZ3RoPSI4MiIgbGVuZ3RoQWRqdXN0PSJzcGFjaW5nIiBmb250LXNpemU9IjE0IiBmb250LWZhbWlseT0ic2Fucy1zZXJpZiIgZmlsbD0iIzAwMDAwMCI+dGV4dDogc3RyaW5nPC90ZXh0PjxyZWN0IHk9IjIyMi45NDUzIiB4PSIxOTMzLjUiIHdpZHRoPSI2IiBzdHlsZT0ic3Ryb2tlOiNDODI5MzA7c3Ryb2tlLXdpZHRoOjEuMDsiIGhlaWdodD0iNiIgZmlsbD0ibm9uZSIvPjx0ZXh0IHk9IjIyOS4yOTIiIHg9IjE5NDUuNSIgdGV4dExlbmd0aD0iODciIGxlbmd0aEFkanVzdD0ic3BhY2luZyIgZm9udC1zaXplPSIxNCIgZm9udC1mYW1pbHk9InNhbnMtc2VyaWYiIGZpbGw9IiMwMDAwMDAiPmF1dGhvcjogVXNlcjwvdGV4dD48cmVjdCB5PSIyMzkuMjQyMiIgeD0iMTkzMy41IiB3aWR0aD0iNiIgc3R5bGU9InN0cm9rZTojQzgyOTMwO3N0cm9rZS13aWR0aDoxLjA7IiBoZWlnaHQ9IjYiIGZpbGw9Im5vbmUiLz48dGV4dCB5PSIyNDUuNTg4OSIgeD0iMTk0NS41IiB0ZXh0TGVuZ3RoPSIxNTYiIGxlbmd0aEFkanVzdD0ic3BhY2luZyIgZm9udC1zaXplPSIxNCIgZm9udC1mYW1pbHk9InNhbnMtc2VyaWYiIGZpbGw9IiMwMDAwMDAiPnRpbWVzdGFtcDogZGF0ZXRpbWU8L3RleHQ+PHJlY3QgeT0iMjU1LjUzOTEiIHg9IjE5MzMuNSIgd2lkdGg9IjYiIHN0eWxlPSJzdHJva2U6I0M4MjkzMDtzdHJva2Utd2lkdGg6MS4wOyIgaGVpZ2h0PSI2IiBmaWxsPSJub25lIi8+PHRleHQgeT0iMjYxLjg4NTciIHg9IjE5NDUuNSIgdGV4dExlbmd0aD0iODciIGxlbmd0aEFkanVzdD0ic3BhY2luZyIgZm9udC1zaXplPSIxNCIgZm9udC1mYW1pbHk9InNhbnMtc2VyaWYiIGZpbGw9IiMwMDAwMDAiPnVwdm90ZXM6IGludDwvdGV4dD48cmVjdCB5PSIyNzEuODM1OSIgeD0iMTkzMy41IiB3aWR0aD0iNiIgc3R5bGU9InN0cm9rZTojQzgyOTMwO3N0cm9rZS13aWR0aDoxLjA7IiBoZWlnaHQ9IjYiIGZpbGw9Im5vbmUiLz48dGV4dCB5PSIyNzguMTgyNiIgeD0iMTk0NS41IiB0ZXh0TGVuZ3RoPSIxMDciIGxlbmd0aEFkanVzdD0ic3BhY2luZyIgZm9udC1zaXplPSIxNCIgZm9udC1mYW1pbHk9InNhbnMtc2VyaWYiIGZpbGw9IiMwMDAwMDAiPmRvd252b3RlczogaW50PC90ZXh0PjxyZWN0IHk9IjI4OC4xMzI4IiB4PSIxOTMzLjUiIHdpZHRoPSI2IiBzdHlsZT0ic3Ryb2tlOiNDODI5MzA7c3Ryb2tlLXdpZHRoOjEuMDsiIGhlaWdodD0iNiIgZmlsbD0ibm9uZSIvPjx0ZXh0IHk9IjI5NC40Nzk1IiB4PSIxOTQ1LjUiIHRleHRMZW5ndGg9IjIwMiIgbGVuZ3RoQWRqdXN0PSJzcGFjaW5nIiBmb250LXNpemU9IjE0IiBmb250LWZhbWlseT0ic2Fucy1zZXJpZiIgZmlsbD0iIzAwMDAwMCI+Y29tbWVudHM6IGxpc3QmbHQ7Q29tbWVudCZndDs8L3RleHQ+PGxpbmUgeTI9IjMwMS43ODEzIiB5MT0iMzAxLjc4MTMiIHgyPSIyMjE0LjUiIHgxPSIxOTI2LjUiIHN0eWxlPSJzdHJva2U6IzE4MTgxODtzdHJva2Utd2lkdGg6MC41OyIvPjxlbGxpcHNlIHN0eWxlPSJzdHJva2U6IzAzODA0ODtzdHJva2Utd2lkdGg6MS4wOyIgcnk9IjMiIHJ4PSIzIiBmaWxsPSIjODRCRTg0IiBjeT0iMzE1LjQyOTciIGN4PSIxOTM2LjUiLz48dGV4dCB5PSIzMTguNzc2NCIgeD0iMTk0NS41IiB0ZXh0TGVuZ3RoPSIyNjQiIGxlbmd0aEFkanVzdD0ic3BhY2luZyIgZm9udC1zaXplPSIxNCIgZm9udC1mYW1pbHk9InNhbnMtc2VyaWYiIGZpbGw9IiMwMDAwMDAiPmFkZF9jb21tZW50KGNvbW1lbnQ6IENvbW1lbnQpPC90ZXh0PjxlbGxpcHNlIHN0eWxlPSJzdHJva2U6IzAzODA0ODtzdHJva2Utd2lkdGg6MS4wOyIgcnk9IjMiIHJ4PSIzIiBmaWxsPSIjODRCRTg0IiBjeT0iMzMxLjcyNjYiIGN4PSIxOTM2LjUiLz48dGV4dCB5PSIzMzUuMDczMiIgeD0iMTk0NS41IiB0ZXh0TGVuZ3RoPSI2MSIgbGVuZ3RoQWRqdXN0PSJzcGFjaW5nIiBmb250LXNpemU9IjE0IiBmb250LWZhbWlseT0ic2Fucy1zZXJpZiIgZmlsbD0iIzAwMDAwMCI+dXB2b3RlKCk8L3RleHQ+PGVsbGlwc2Ugc3R5bGU9InN0cm9rZTojMDM4MDQ4O3N0cm9rZS13aWR0aDoxLjA7IiByeT0iMyIgcng9IjMiIGZpbGw9IiM4NEJFODQiIGN5PSIzNDguMDIzNCIgY3g9IjE5MzYuNSIvPjx0ZXh0IHk9IjM1MS4zNzAxIiB4PSIxOTQ1LjUiIHRleHRMZW5ndGg9IjgxIiBsZW5ndGhBZGp1c3Q9InNwYWNpbmciIGZvbnQtc2l6ZT0iMTQiIGZvbnQtZmFtaWx5PSJzYW5zLXNlcmlmIiBmaWxsPSIjMDAwMDAwIj5kb3dudm90ZSgpPC90ZXh0PjwvZz48ZyBpZD0iZWxlbV9Db21tZW50Ij48cmVjdCB5PSIxNjQiIHg9IjIzMjEiIHdpZHRoPSIxOTMiIHN0eWxlPSJzdHJva2U6IzE4MTgxODtzdHJva2Utd2lkdGg6MC41OyIgcnk9IjIuNSIgcng9IjIuNSIgaWQ9IkNvbW1lbnQiIGhlaWdodD0iMTk0LjY3MTkiIGZpbGw9IiNGMUYxRjEiLz48ZWxsaXBzZSBzdHlsZT0ic3Ryb2tlOiMxODE4MTg7c3Ryb2tlLXdpZHRoOjEuMDsiIHJ5PSIxMSIgcng9IjExIiBmaWxsPSIjQUREMUIyIiBjeT0iMTgwIiBjeD0iMjM3Ny4yNSIvPjxwYXRoIGZpbGw9IiMwMDAwMDAiIGQ9Ik0yMzc5LjU5MzgsMTc1LjY3MTkgQzIzNzguNjU2MywxNzUuMjM0NCAyMzc4LjA2MjUsMTc1LjA5MzggMjM3Ny4xODc1LDE3NS4wOTM4IEMyMzc0LjU2MjUsMTc1LjA5MzggMjM3Mi41NjI1LDE3Ny4xNzE5IDIzNzIuNTYyNSwxNzkuODkwNiBMMjM3Mi41NjI1LDE4MS4wMTU2IEMyMzcyLjU2MjUsMTgzLjU5MzggMjM3NC42NzE5LDE4NS40ODQ0IDIzNzcuNTYyNSwxODUuNDg0NCBDMjM3OC43ODEzLDE4NS40ODQ0IDIzNzkuOTM3NSwxODUuMTg3NSAyMzgwLjY4NzUsMTg0LjY0MDYgQzIzODEuMjY1NiwxODQuMjM0NCAyMzgxLjU5MzgsMTgzLjc4MTMgMjM4MS41OTM4LDE4My4zOTA2IEMyMzgxLjU5MzgsMTgyLjkzNzUgMjM4MS4yMDMxLDE4Mi41NDY5IDIzODAuNzM0NCwxODIuNTQ2OSBDMjM4MC41MTU2LDE4Mi41NDY5IDIzODAuMzEyNSwxODIuNjI1IDIzODAuMTI1LDE4Mi44MTI1IEMyMzc5LjY3MTksMTgzLjI5NjkgMjM3OS42NzE5LDE4My4yOTY5IDIzNzkuNDg0NCwxODMuMzkwNiBDMjM3OS4wNjI1LDE4My42NTYzIDIzNzguMzc1LDE4My43ODEzIDIzNzcuNjA5NCwxODMuNzgxMyBDMjM3NS41NjI1LDE4My43ODEzIDIzNzQuMjY1NiwxODIuNjg3NSAyMzc0LjI2NTYsMTgwLjk4NDQgTDIzNzQuMjY1NiwxNzkuODkwNiBDMjM3NC4yNjU2LDE3OC4xMDk0IDIzNzUuNTE1NiwxNzYuNzk2OSAyMzc3LjI1LDE3Ni43OTY5IEMyMzc3LjgyODEsMTc2Ljc5NjkgMjM3OC40Mzc1LDE3Ni45NTMxIDIzNzguOTA2MywxNzcuMjAzMSBDMjM3OS4zOTA2LDE3Ny40ODQ0IDIzNzkuNTYyNSwxNzcuNzAzMSAyMzc5LjY1NjMsMTc4LjEwOTQgQzIzNzkuNzE4OCwxNzguNTE1NiAyMzc5Ljc1LDE3OC42NDA2IDIzNzkuODkwNiwxNzguNzY1NiBDMjM4MC4wMzEzLDE3OC45MDYzIDIzODAuMjY1NiwxNzkuMDE1NiAyMzgwLjQ4NDQsMTc5LjAxNTYgQzIzODAuNzUsMTc5LjAxNTYgMjM4MS4wMTU2LDE3OC44NzUgMjM4MS4xODc1LDE3OC42NTYzIEMyMzgxLjI5NjksMTc4LjUgMjM4MS4zMjgxLDE3OC4zMTI1IDIzODEuMzI4MSwxNzcuODkwNiBMMjM4MS4zMjgxLDE3Ni40Njg4IEMyMzgxLjMyODEsMTc2LjAzMTMgMjM4MS4zMTI1LDE3NS45MDYzIDIzODEuMjE4OCwxNzUuNzUgQzIzODEuMDYyNSwxNzUuNDg0NCAyMzgwLjc4MTMsMTc1LjM0MzggMjM4MC40ODQ0LDE3NS4zNDM4IEMyMzgwLjE4NzUsMTc1LjM0MzggMjM3OS45ODQ0LDE3NS40Mzc1IDIzNzkuNzY1NiwxNzUuNzUgTDIzNzkuNTkzOCwxNzUuNjcxOSBaIi8+PHRleHQgeT0iMTg0Ljg0NjciIHg9IjIzOTcuNzUiIHRleHRMZW5ndGg9IjcyIiBsZW5ndGhBZGp1c3Q9InNwYWNpbmciIGZvbnQtc2l6ZT0iMTQiIGZvbnQtZmFtaWx5PSJzYW5zLXNlcmlmIiBmaWxsPSIjMDAwMDAwIj5Db21tZW50PC90ZXh0PjxsaW5lIHkyPSIxOTYiIHkxPSIxOTYiIHgyPSIyNTEzIiB4MT0iMjMyMiIgc3R5bGU9InN0cm9rZTojMTgxODE4O3N0cm9rZS13aWR0aDowLjU7Ii8+PHJlY3QgeT0iMjA2LjY0ODQiIHg9IjIzMjkiIHdpZHRoPSI2IiBzdHlsZT0ic3Ryb2tlOiNDODI5MzA7c3Ryb2tlLXdpZHRoOjEuMDsiIGhlaWdodD0iNiIgZmlsbD0ibm9uZSIvPjx0ZXh0IHk9IjIxMi45OTUxIiB4PSIyMzQxIiB0ZXh0TGVuZ3RoPSI4MiIgbGVuZ3RoQWRqdXN0PSJzcGFjaW5nIiBmb250LXNpemU9IjE0IiBmb250LWZhbWlseT0ic2Fucy1zZXJpZiIgZmlsbD0iIzAwMDAwMCI+dGV4dDogc3RyaW5nPC90ZXh0PjxyZWN0IHk9IjIyMi45NDUzIiB4PSIyMzI5IiB3aWR0aD0iNiIgc3R5bGU9InN0cm9rZTojQzgyOTMwO3N0cm9rZS13aWR0aDoxLjA7IiBoZWlnaHQ9IjYiIGZpbGw9Im5vbmUiLz48dGV4dCB5PSIyMjkuMjkyIiB4PSIyMzQxIiB0ZXh0TGVuZ3RoPSI4NyIgbGVuZ3RoQWRqdXN0PSJzcGFjaW5nIiBmb250LXNpemU9IjE0IiBmb250LWZhbWlseT0ic2Fucy1zZXJpZiIgZmlsbD0iIzAwMDAwMCI+YXV0aG9yOiBVc2VyPC90ZXh0PjxyZWN0IHk9IjIzOS4yNDIyIiB4PSIyMzI5IiB3aWR0aD0iNiIgc3R5bGU9InN0cm9rZTojQzgyOTMwO3N0cm9rZS13aWR0aDoxLjA7IiBoZWlnaHQ9IjYiIGZpbGw9Im5vbmUiLz48dGV4dCB5PSIyNDUuNTg4OSIgeD0iMjM0MSIgdGV4dExlbmd0aD0iMTU2IiBsZW5ndGhBZGp1c3Q9InNwYWNpbmciIGZvbnQtc2l6ZT0iMTQiIGZvbnQtZmFtaWx5PSJzYW5zLXNlcmlmIiBmaWxsPSIjMDAwMDAwIj50aW1lc3RhbXA6IGRhdGV0aW1lPC90ZXh0PjxyZWN0IHk9IjI1NS41MzkxIiB4PSIyMzI5IiB3aWR0aD0iNiIgc3R5bGU9InN0cm9rZTojQzgyOTMwO3N0cm9rZS13aWR0aDoxLjA7IiBoZWlnaHQ9IjYiIGZpbGw9Im5vbmUiLz48dGV4dCB5PSIyNjEuODg1NyIgeD0iMjM0MSIgdGV4dExlbmd0aD0iODciIGxlbmd0aEFkanVzdD0ic3BhY2luZyIgZm9udC1zaXplPSIxNCIgZm9udC1mYW1pbHk9InNhbnMtc2VyaWYiIGZpbGw9IiMwMDAwMDAiPnVwdm90ZXM6IGludDwvdGV4dD48cmVjdCB5PSIyNzEuODM1OSIgeD0iMjMyOSIgd2lkdGg9IjYiIHN0eWxlPSJzdHJva2U6I0M4MjkzMDtzdHJva2Utd2lkdGg6MS4wOyIgaGVpZ2h0PSI2IiBmaWxsPSJub25lIi8+PHRleHQgeT0iMjc4LjE4MjYiIHg9IjIzNDEiIHRleHRMZW5ndGg9IjEwNyIgbGVuZ3RoQWRqdXN0PSJzcGFjaW5nIiBmb250LXNpemU9IjE0IiBmb250LWZhbWlseT0ic2Fucy1zZXJpZiIgZmlsbD0iIzAwMDAwMCI+ZG93bnZvdGVzOiBpbnQ8L3RleHQ+PHJlY3QgeT0iMjg4LjEzMjgiIHg9IjIzMjkiIHdpZHRoPSI2IiBzdHlsZT0ic3Ryb2tlOiNDODI5MzA7c3Ryb2tlLXdpZHRoOjEuMDsiIGhlaWdodD0iNiIgZmlsbD0ibm9uZSIvPjx0ZXh0IHk9IjI5NC40Nzk1IiB4PSIyMzQxIiB0ZXh0TGVuZ3RoPSIxNDMiIGxlbmd0aEFkanVzdD0ic3BhY2luZyIgZm9udC1zaXplPSIxNCIgZm9udC1mYW1pbHk9InNhbnMtc2VyaWYiIGZpbGw9IiMwMDAwMDAiPnJlcGxpZXM6IGxpc3QmbHQ7UmVwbHkmZ3Q7PC90ZXh0PjxsaW5lIHkyPSIzMDEuNzgxMyIgeTE9IjMwMS43ODEzIiB4Mj0iMjUxMyIgeDE9IjIzMjIiIHN0eWxlPSJzdHJva2U6IzE4MTgxODtzdHJva2Utd2lkdGg6MC41OyIvPjxlbGxpcHNlIHN0eWxlPSJzdHJva2U6IzAzODA0ODtzdHJva2Utd2lkdGg6MS4wOyIgcnk9IjMiIHJ4PSIzIiBmaWxsPSIjODRCRTg0IiBjeT0iMzE1LjQyOTciIGN4PSIyMzMyIi8+PHRleHQgeT0iMzE4Ljc3NjQiIHg9IjIzNDEiIHRleHRMZW5ndGg9IjE2NyIgbGVuZ3RoQWRqdXN0PSJzcGFjaW5nIiBmb250LXNpemU9IjE0IiBmb250LWZhbWlseT0ic2Fucy1zZXJpZiIgZmlsbD0iIzAwMDAwMCI+YWRkX3JlcGx5KHJlcGx5OiBSZXBseSk8L3RleHQ+PGVsbGlwc2Ugc3R5bGU9InN0cm9rZTojMDM4MDQ4O3N0cm9rZS13aWR0aDoxLjA7IiByeT0iMyIgcng9IjMiIGZpbGw9IiM4NEJFODQiIGN5PSIzMzEuNzI2NiIgY3g9IjIzMzIiLz48dGV4dCB5PSIzMzUuMDczMiIgeD0iMjM0MSIgdGV4dExlbmd0aD0iNjEiIGxlbmd0aEFkanVzdD0ic3BhY2luZyIgZm9udC1zaXplPSIxNCIgZm9udC1mYW1pbHk9InNhbnMtc2VyaWYiIGZpbGw9IiMwMDAwMDAiPnVwdm90ZSgpPC90ZXh0PjxlbGxpcHNlIHN0eWxlPSJzdHJva2U6IzAzODA0ODtzdHJva2Utd2lkdGg6MS4wOyIgcnk9IjMiIHJ4PSIzIiBmaWxsPSIjODRCRTg0IiBjeT0iMzQ4LjAyMzQiIGN4PSIyMzMyIi8+PHRleHQgeT0iMzUxLjM3MDEiIHg9IjIzNDEiIHRleHRMZW5ndGg9IjgxIiBsZW5ndGhBZGp1c3Q9InNwYWNpbmciIGZvbnQtc2l6ZT0iMTQiIGZvbnQtZmFtaWx5PSJzYW5zLXNlcmlmIiBmaWxsPSIjMDAwMDAwIj5kb3dudm90ZSgpPC90ZXh0PjwvZz48ZyBpZD0iZWxlbV9OZXdzRmVlZCI+PHJlY3QgeT0iMTg4LjUiIHg9IjE2NDEuNSIgd2lkdGg9IjIxMiIgc3R5bGU9InN0cm9rZTojMTgxODE4O3N0cm9rZS13aWR0aDowLjU7IiByeT0iMi41IiByeD0iMi41IiBpZD0iTmV3c0ZlZWQiIGhlaWdodD0iMTQ1Ljc4MTMiIGZpbGw9IiNGMUYxRjEiLz48ZWxsaXBzZSBzdHlsZT0ic3Ryb2tlOiMxODE4MTg7c3Ryb2tlLXdpZHRoOjEuMDsiIHJ5PSIxMSIgcng9IjExIiBmaWxsPSIjQUREMUIyIiBjeT0iMjA0LjUiIGN4PSIxNzA3LjI1Ii8+PHBhdGggZmlsbD0iIzAwMDAwMCIgZD0iTTE3MDkuNTkzOCwyMDAuMTcxOSBDMTcwOC42NTYzLDE5OS43MzQ0IDE3MDguMDYyNSwxOTkuNTkzOCAxNzA3LjE4NzUsMTk5LjU5MzggQzE3MDQuNTYyNSwxOTkuNTkzOCAxNzAyLjU2MjUsMjAxLjY3MTkgMTcwMi41NjI1LDIwNC4zOTA2IEwxNzAyLjU2MjUsMjA1LjUxNTYgQzE3MDIuNTYyNSwyMDguMDkzOCAxNzA0LjY3MTksMjA5Ljk4NDQgMTcwNy41NjI1LDIwOS45ODQ0IEMxNzA4Ljc4MTMsMjA5Ljk4NDQgMTcwOS45Mzc1LDIwOS42ODc1IDE3MTAuNjg3NSwyMDkuMTQwNiBDMTcxMS4yNjU2LDIwOC43MzQ0IDE3MTEuNTkzOCwyMDguMjgxMyAxNzExLjU5MzgsMjA3Ljg5MDYgQzE3MTEuNTkzOCwyMDcuNDM3NSAxNzExLjIwMzEsMjA3LjA0NjkgMTcxMC43MzQ0LDIwNy4wNDY5IEMxNzEwLjUxNTYsMjA3LjA0NjkgMTcxMC4zMTI1LDIwNy4xMjUgMTcxMC4xMjUsMjA3LjMxMjUgQzE3MDkuNjcxOSwyMDcuNzk2OSAxNzA5LjY3MTksMjA3Ljc5NjkgMTcwOS40ODQ0LDIwNy44OTA2IEMxNzA5LjA2MjUsMjA4LjE1NjMgMTcwOC4zNzUsMjA4LjI4MTMgMTcwNy42MDk0LDIwOC4yODEzIEMxNzA1LjU2MjUsMjA4LjI4MTMgMTcwNC4yNjU2LDIwNy4xODc1IDE3MDQuMjY1NiwyMDUuNDg0NCBMMTcwNC4yNjU2LDIwNC4zOTA2IEMxNzA0LjI2NTYsMjAyLjYwOTQgMTcwNS41MTU2LDIwMS4yOTY5IDE3MDcuMjUsMjAxLjI5NjkgQzE3MDcuODI4MSwyMDEuMjk2OSAxNzA4LjQzNzUsMjAxLjQ1MzEgMTcwOC45MDYzLDIwMS43MDMxIEMxNzA5LjM5MDYsMjAxLjk4NDQgMTcwOS41NjI1LDIwMi4yMDMxIDE3MDkuNjU2MywyMDIuNjA5NCBDMTcwOS43MTg4LDIwMy4wMTU2IDE3MDkuNzUsMjAzLjE0MDYgMTcwOS44OTA2LDIwMy4yNjU2IEMxNzEwLjAzMTMsMjAzLjQwNjMgMTcxMC4yNjU2LDIwMy41MTU2IDE3MTAuNDg0NCwyMDMuNTE1NiBDMTcxMC43NSwyMDMuNTE1NiAxNzExLjAxNTYsMjAzLjM3NSAxNzExLjE4NzUsMjAzLjE1NjMgQzE3MTEuMjk2OSwyMDMgMTcxMS4zMjgxLDIwMi44MTI1IDE3MTEuMzI4MSwyMDIuMzkwNiBMMTcxMS4zMjgxLDIwMC45Njg4IEMxNzExLjMyODEsMjAwLjUzMTMgMTcxMS4zMTI1LDIwMC40MDYzIDE3MTEuMjE4OCwyMDAuMjUgQzE3MTEuMDYyNSwxOTkuOTg0NCAxNzEwLjc4MTMsMTk5Ljg0MzggMTcxMC40ODQ0LDE5OS44NDM4IEMxNzEwLjE4NzUsMTk5Ljg0MzggMTcwOS45ODQ0LDE5OS45Mzc1IDE3MDkuNzY1NiwyMDAuMjUgTDE3MDkuNTkzOCwyMDAuMTcxOSBaIi8+PHRleHQgeT0iMjA5LjM0NjciIHg9IjE3MjcuNzUiIHRleHRMZW5ndGg9IjcyIiBsZW5ndGhBZGp1c3Q9InNwYWNpbmciIGZvbnQtc2l6ZT0iMTQiIGZvbnQtZmFtaWx5PSJzYW5zLXNlcmlmIiBmaWxsPSIjMDAwMDAwIj5OZXdzRmVlZDwvdGV4dD48bGluZSB5Mj0iMjIwLjUiIHkxPSIyMjAuNSIgeDI9IjE4NTIuNSIgeDE9IjE2NDIuNSIgc3R5bGU9InN0cm9rZTojMTgxODE4O3N0cm9rZS13aWR0aDowLjU7Ii8+PHJlY3QgeT0iMjMxLjE0ODQiIHg9IjE2NDkuNSIgd2lkdGg9IjYiIHN0eWxlPSJzdHJva2U6I0M4MjkzMDtzdHJva2Utd2lkdGg6MS4wOyIgaGVpZ2h0PSI2IiBmaWxsPSJub25lIi8+PHRleHQgeT0iMjM3LjQ5NTEiIHg9IjE2NjEuNSIgdGV4dExlbmd0aD0iMTI1IiBsZW5ndGhBZGp1c3Q9InNwYWNpbmciIGZvbnQtc2l6ZT0iMTQiIGZvbnQtZmFtaWx5PSJzYW5zLXNlcmlmIiBmaWxsPSIjMDAwMDAwIj5wb3N0czogbGlzdCZsdDtQb3N0Jmd0OzwvdGV4dD48bGluZSB5Mj0iMjQ0Ljc5NjkiIHkxPSIyNDQuNzk2OSIgeDI9IjE4NTIuNSIgeDE9IjE2NDIuNSIgc3R5bGU9InN0cm9rZTojMTgxODE4O3N0cm9rZS13aWR0aDowLjU7Ii8+PGVsbGlwc2Ugc3R5bGU9InN0cm9rZTojMDM4MDQ4O3N0cm9rZS13aWR0aDoxLjA7IiByeT0iMyIgcng9IjMiIGZpbGw9IiM4NEJFODQiIGN5PSIyNTguNDQ1MyIgY3g9IjE2NTIuNSIvPjx0ZXh0IHk9IjI2MS43OTIiIHg9IjE2NjEuNSIgdGV4dExlbmd0aD0iMTUwIiBsZW5ndGhBZGp1c3Q9InNwYWNpbmciIGZvbnQtc2l6ZT0iMTQiIGZvbnQtZmFtaWx5PSJzYW5zLXNlcmlmIiBmaWxsPSIjMDAwMDAwIj5hZGRfcG9zdChwb3N0OiBQb3N0KTwvdGV4dD48ZWxsaXBzZSBzdHlsZT0ic3Ryb2tlOiMwMzgwNDg7c3Ryb2tlLXdpZHRoOjEuMDsiIHJ5PSIzIiByeD0iMyIgZmlsbD0iIzg0QkU4NCIgY3k9IjI3NC43NDIyIiBjeD0iMTY1Mi41Ii8+PHRleHQgeT0iMjc4LjA4ODkiIHg9IjE2NjEuNSIgdGV4dExlbmd0aD0iMTc2IiBsZW5ndGhBZGp1c3Q9InNwYWNpbmciIGZvbnQtc2l6ZT0iMTQiIGZvbnQtZmFtaWx5PSJzYW5zLXNlcmlmIiBmaWxsPSIjMDAwMDAwIj5zb3J0X2J5X2ZvbGxvd2VkX3VzZXJzKCk8L3RleHQ+PGVsbGlwc2Ugc3R5bGU9InN0cm9rZTojMDM4MDQ4O3N0cm9rZS13aWR0aDoxLjA7IiByeT0iMyIgcng9IjMiIGZpbGw9IiM4NEJFODQiIGN5PSIyOTEuMDM5MSIgY3g9IjE2NTIuNSIvPjx0ZXh0IHk9IjI5NC4zODU3IiB4PSIxNjYxLjUiIHRleHRMZW5ndGg9IjExMCIgbGVuZ3RoQWRqdXN0PSJzcGFjaW5nIiBmb250LXNpemU9IjE0IiBmb250LWZhbWlseT0ic2Fucy1zZXJpZiIgZmlsbD0iIzAwMDAwMCI+c29ydF9ieV9zY29yZSgpPC90ZXh0PjxlbGxpcHNlIHN0eWxlPSJzdHJva2U6IzAzODA0ODtzdHJva2Utd2lkdGg6MS4wOyIgcnk9IjMiIHJ4PSIzIiBmaWxsPSIjODRCRTg0IiBjeT0iMzA3LjMzNTkiIGN4PSIxNjUyLjUiLz48dGV4dCB5PSIzMTAuNjgyNiIgeD0iMTY2MS41IiB0ZXh0TGVuZ3RoPSIxODYiIGxlbmd0aEFkanVzdD0ic3BhY2luZyIgZm9udC1zaXplPSIxNCIgZm9udC1mYW1pbHk9InNhbnMtc2VyaWYiIGZpbGw9IiMwMDAwMDAiPnNvcnRfYnlfbnVtX2NvbW1lbnRzKCk8L3RleHQ+PGVsbGlwc2Ugc3R5bGU9InN0cm9rZTojMDM4MDQ4O3N0cm9rZS13aWR0aDoxLjA7IiByeT0iMyIgcng9IjMiIGZpbGw9IiM4NEJFODQiIGN5PSIzMjMuNjMyOCIgY3g9IjE2NTIuNSIvPjx0ZXh0IHk9IjMyNi45Nzk1IiB4PSIxNjYxLjUiIHRleHRMZW5ndGg9IjE1MSIgbGVuZ3RoQWRqdXN0PSJzcGFjaW5nIiBmb250LXNpemU9IjE0IiBmb250LWZhbWlseT0ic2Fucy1zZXJpZiIgZmlsbD0iIzAwMDAwMCI+c29ydF9ieV90aW1lc3RhbXAoKTwvdGV4dD48L2c+PGcgaWQ9ImVsZW1fU2Vzc2lvbiI+PHJlY3QgeT0iMjEzIiB4PSI0ODcuNSIgd2lkdGg9IjE2NiIgc3R5bGU9InN0cm9rZTojMTgxODE4O3N0cm9rZS13aWR0aDowLjU7IiByeT0iMi41IiByeD0iMi41IiBpZD0iU2Vzc2lvbiIgaGVpZ2h0PSI5Ni44OTA2IiBmaWxsPSIjRjFGMUYxIi8+PGVsbGlwc2Ugc3R5bGU9InN0cm9rZTojMTgxODE4O3N0cm9rZS13aWR0aDoxLjA7IiByeT0iMTEiIHJ4PSIxMSIgZmlsbD0iI0FERDFCMiIgY3k9IjIyOSIgY3g9IjUzOS4yNSIvPjxwYXRoIGZpbGw9IiMwMDAwMDAiIGQ9Ik01NDEuNTkzOCwyMjQuNjcxOSBDNTQwLjY1NjMsMjI0LjIzNDQgNTQwLjA2MjUsMjI0LjA5MzggNTM5LjE4NzUsMjI0LjA5MzggQzUzNi41NjI1LDIyNC4wOTM4IDUzNC41NjI1LDIyNi4xNzE5IDUzNC41NjI1LDIyOC44OTA2IEw1MzQuNTYyNSwyMzAuMDE1NiBDNTM0LjU2MjUsMjMyLjU5MzggNTM2LjY3MTksMjM0LjQ4NDQgNTM5LjU2MjUsMjM0LjQ4NDQgQzU0MC43ODEzLDIzNC40ODQ0IDU0MS45Mzc1LDIzNC4xODc1IDU0Mi42ODc1LDIzMy42NDA2IEM1NDMuMjY1NiwyMzMuMjM0NCA1NDMuNTkzOCwyMzIuNzgxMyA1NDMuNTkzOCwyMzIuMzkwNiBDNTQzLjU5MzgsMjMxLjkzNzUgNTQzLjIwMzEsMjMxLjU0NjkgNTQyLjczNDQsMjMxLjU0NjkgQzU0Mi41MTU2LDIzMS41NDY5IDU0Mi4zMTI1LDIzMS42MjUgNTQyLjEyNSwyMzEuODEyNSBDNTQxLjY3MTksMjMyLjI5NjkgNTQxLjY3MTksMjMyLjI5NjkgNTQxLjQ4NDQsMjMyLjM5MDYgQzU0MS4wNjI1LDIzMi42NTYzIDU0MC4zNzUsMjMyLjc4MTMgNTM5LjYwOTQsMjMyLjc4MTMgQzUzNy41NjI1LDIzMi43ODEzIDUzNi4yNjU2LDIzMS42ODc1IDUzNi4yNjU2LDIyOS45ODQ0IEw1MzYuMjY1NiwyMjguODkwNiBDNTM2LjI2NTYsMjI3LjEwOTQgNTM3LjUxNTYsMjI1Ljc5NjkgNTM5LjI1LDIyNS43OTY5IEM1MzkuODI4MSwyMjUuNzk2OSA1NDAuNDM3NSwyMjUuOTUzMSA1NDAuOTA2MywyMjYuMjAzMSBDNTQxLjM5MDYsMjI2LjQ4NDQgNTQxLjU2MjUsMjI2LjcwMzEgNTQxLjY1NjMsMjI3LjEwOTQgQzU0MS43MTg4LDIyNy41MTU2IDU0MS43NSwyMjcuNjQwNiA1NDEuODkwNiwyMjcuNzY1NiBDNTQyLjAzMTMsMjI3LjkwNjMgNTQyLjI2NTYsMjI4LjAxNTYgNTQyLjQ4NDQsMjI4LjAxNTYgQzU0Mi43NSwyMjguMDE1NiA1NDMuMDE1NiwyMjcuODc1IDU0My4xODc1LDIyNy42NTYzIEM1NDMuMjk2OSwyMjcuNSA1NDMuMzI4MSwyMjcuMzEyNSA1NDMuMzI4MSwyMjYuODkwNiBMNTQzLjMyODEsMjI1LjQ2ODggQzU0My4zMjgxLDIyNS4wMzEzIDU0My4zMTI1LDIyNC45MDYzIDU0My4yMTg4LDIyNC43NSBDNTQzLjA2MjUsMjI0LjQ4NDQgNTQyLjc4MTMsMjI0LjM0MzggNTQyLjQ4NDQsMjI0LjM0MzggQzU0Mi4xODc1LDIyNC4zNDM4IDU0MS45ODQ0LDIyNC40Mzc1IDU0MS43NjU2LDIyNC43NSBMNTQxLjU5MzgsMjI0LjY3MTkgWiIvPjx0ZXh0IHk9IjIzMy44NDY3IiB4PSI1NTkuNzUiIHRleHRMZW5ndGg9IjU0IiBsZW5ndGhBZGp1c3Q9InNwYWNpbmciIGZvbnQtc2l6ZT0iMTQiIGZvbnQtZmFtaWx5PSJzYW5zLXNlcmlmIiBmaWxsPSIjMDAwMDAwIj5TZXNzaW9uPC90ZXh0PjxsaW5lIHkyPSIyNDUiIHkxPSIyNDUiIHgyPSI2NTIuNSIgeDE9IjQ4OC41IiBzdHlsZT0ic3Ryb2tlOiMxODE4MTg7c3Ryb2tlLXdpZHRoOjAuNTsiLz48cmVjdCB5PSIyNTUuNjQ4NCIgeD0iNDk1LjUiIHdpZHRoPSI2IiBzdHlsZT0ic3Ryb2tlOiNDODI5MzA7c3Ryb2tlLXdpZHRoOjEuMDsiIGhlaWdodD0iNiIgZmlsbD0ibm9uZSIvPjx0ZXh0IHk9IjI2MS45OTUxIiB4PSI1MDcuNSIgdGV4dExlbmd0aD0iMTMwIiBsZW5ndGhBZGp1c3Q9InNwYWNpbmciIGZvbnQtc2l6ZT0iMTQiIGZvbnQtZmFtaWx5PSJzYW5zLXNlcmlmIiBmaWxsPSIjMDAwMDAwIj5jdXJyZW50X3VzZXI6IFVzZXI8L3RleHQ+PGxpbmUgeTI9IjI2OS4yOTY5IiB5MT0iMjY5LjI5NjkiIHgyPSI2NTIuNSIgeDE9IjQ4OC41IiBzdHlsZT0ic3Ryb2tlOiMxODE4MTg7c3Ryb2tlLXdpZHRoOjAuNTsiLz48ZWxsaXBzZSBzdHlsZT0ic3Ryb2tlOiMwMzgwNDg7c3Ryb2tlLXdpZHRoOjEuMDsiIHJ5PSIzIiByeD0iMyIgZmlsbD0iIzg0QkU4NCIgY3k9IjI4Mi45NDUzIiBjeD0iNDk4LjUiLz48dGV4dCB5PSIyODYuMjkyIiB4PSI1MDcuNSIgdGV4dExlbmd0aD0iMTQwIiBsZW5ndGhBZGp1c3Q9InNwYWNpbmciIGZvbnQtc2l6ZT0iMTQiIGZvbnQtZmFtaWx5PSJzYW5zLXNlcmlmIiBmaWxsPSIjMDAwMDAwIj5zZXRfdXNlcih1c2VyOiBVc2VyKTwvdGV4dD48ZWxsaXBzZSBzdHlsZT0ic3Ryb2tlOiMwMzgwNDg7c3Ryb2tlLXdpZHRoOjEuMDsiIHJ5PSIzIiByeD0iMyIgZmlsbD0iIzg0QkU4NCIgY3k9IjI5OS4yNDIyIiBjeD0iNDk4LjUiLz48dGV4dCB5PSIzMDIuNTg4OSIgeD0iNTA3LjUiIHRleHRMZW5ndGg9IjExMiIgbGVuZ3RoQWRqdXN0PSJzcGFjaW5nIiBmb250LXNpemU9IjE0IiBmb250LWZhbWlseT0ic2Fucy1zZXJpZiIgZmlsbD0iIzAwMDAwMCI+Z2V0X3VzZXIoKTogVXNlcjwvdGV4dD48L2c+PGcgaWQ9ImVsZW1fU3lzdGVtIj48cmVjdCB5PSIxNTYiIHg9IjciIHdpZHRoPSIzODkiIHN0eWxlPSJzdHJva2U6IzE4MTgxODtzdHJva2Utd2lkdGg6MC41OyIgcnk9IjIuNSIgcng9IjIuNSIgaWQ9IlN5c3RlbSIgaGVpZ2h0PSIyMTAuOTY4OCIgZmlsbD0iI0YxRjFGMSIvPjxlbGxpcHNlIHN0eWxlPSJzdHJva2U6IzE4MTgxODtzdHJva2Utd2lkdGg6MS4wOyIgcnk9IjExIiByeD0iMTEiIGZpbGw9IiNBREQxQjIiIGN5PSIxNzIiIGN4PSIxNzAuMjUiLz48cGF0aCBmaWxsPSIjMDAwMDAwIiBkPSJNMTcyLjU5MzgsMTY3LjY3MTkgQzE3MS42NTYzLDE2Ny4yMzQ0IDE3MS4wNjI1LDE2Ny4wOTM4IDE3MC4xODc1LDE2Ny4wOTM4IEMxNjcuNTYyNSwxNjcuMDkzOCAxNjUuNTYyNSwxNjkuMTcxOSAxNjUuNTYyNSwxNzEuODkwNiBMMTY1LjU2MjUsMTczLjAxNTYgQzE2NS41NjI1LDE3NS41OTM4IDE2Ny42NzE5LDE3Ny40ODQ0IDE3MC41NjI1LDE3Ny40ODQ0IEMxNzEuNzgxMywxNzcuNDg0NCAxNzIuOTM3NSwxNzcuMTg3NSAxNzMuNjg3NSwxNzYuNjQwNiBDMTc0LjI2NTYsMTc2LjIzNDQgMTc0LjU5MzgsMTc1Ljc4MTMgMTc0LjU5MzgsMTc1LjM5MDYgQzE3NC41OTM4LDE3NC45Mzc1IDE3NC4yMDMxLDE3NC41NDY5IDE3My43MzQ0LDE3NC41NDY5IEMxNzMuNTE1NiwxNzQuNTQ2OSAxNzMuMzEyNSwxNzQuNjI1IDE3My4xMjUsMTc0LjgxMjUgQzE3Mi42NzE5LDE3NS4yOTY5IDE3Mi42NzE5LDE3NS4yOTY5IDE3Mi40ODQ0LDE3NS4zOTA2IEMxNzIuMDYyNSwxNzUuNjU2MyAxNzEuMzc1LDE3NS43ODEzIDE3MC42MDk0LDE3NS43ODEzIEMxNjguNTYyNSwxNzUuNzgxMyAxNjcuMjY1NiwxNzQuNjg3NSAxNjcuMjY1NiwxNzIuOTg0NCBMMTY3LjI2NTYsMTcxLjg5MDYgQzE2Ny4yNjU2LDE3MC4xMDk0IDE2OC41MTU2LDE2OC43OTY5IDE3MC4yNSwxNjguNzk2OSBDMTcwLjgyODEsMTY4Ljc5NjkgMTcxLjQzNzUsMTY4Ljk1MzEgMTcxLjkwNjMsMTY5LjIwMzEgQzE3Mi4zOTA2LDE2OS40ODQ0IDE3Mi41NjI1LDE2OS43MDMxIDE3Mi42NTYzLDE3MC4xMDk0IEMxNzIuNzE4OCwxNzAuNTE1NiAxNzIuNzUsMTcwLjY0MDYgMTcyLjg5MDYsMTcwLjc2NTYgQzE3My4wMzEzLDE3MC45MDYzIDE3My4yNjU2LDE3MS4wMTU2IDE3My40ODQ0LDE3MS4wMTU2IEMxNzMuNzUsMTcxLjAxNTYgMTc0LjAxNTYsMTcwLjg3NSAxNzQuMTg3NSwxNzAuNjU2MyBDMTc0LjI5NjksMTcwLjUgMTc0LjMyODEsMTcwLjMxMjUgMTc0LjMyODEsMTY5Ljg5MDYgTDE3NC4zMjgxLDE2OC40Njg4IEMxNzQuMzI4MSwxNjguMDMxMyAxNzQuMzEyNSwxNjcuOTA2MyAxNzQuMjE4OCwxNjcuNzUgQzE3NC4wNjI1LDE2Ny40ODQ0IDE3My43ODEzLDE2Ny4zNDM4IDE3My40ODQ0LDE2Ny4zNDM4IEMxNzMuMTg3NSwxNjcuMzQzOCAxNzIuOTg0NCwxNjcuNDM3NSAxNzIuNzY1NiwxNjcuNzUgTDE3Mi41OTM4LDE2Ny42NzE5IFoiLz48dGV4dCB5PSIxNzYuODQ2NyIgeD0iMTkwLjc1IiB0ZXh0TGVuZ3RoPSI1NCIgbGVuZ3RoQWRqdXN0PSJzcGFjaW5nIiBmb250LXNpemU9IjE0IiBmb250LWZhbWlseT0ic2Fucy1zZXJpZiIgZmlsbD0iIzAwMDAwMCI+U3lzdGVtPC90ZXh0PjxsaW5lIHkyPSIxODgiIHkxPSIxODgiIHgyPSIzOTUiIHgxPSI4IiBzdHlsZT0ic3Ryb2tlOiMxODE4MTg7c3Ryb2tlLXdpZHRoOjAuNTsiLz48cmVjdCB5PSIxOTguNjQ4NCIgeD0iMTUiIHdpZHRoPSI2IiBzdHlsZT0ic3Ryb2tlOiNDODI5MzA7c3Ryb2tlLXdpZHRoOjEuMDsiIGhlaWdodD0iNiIgZmlsbD0ibm9uZSIvPjx0ZXh0IHk9IjIwNC45OTUxIiB4PSIyNyIgdGV4dExlbmd0aD0iMTIxIiBsZW5ndGhBZGp1c3Q9InNwYWNpbmciIGZvbnQtc2l6ZT0iMTQiIGZvbnQtZmFtaWx5PSJzYW5zLXNlcmlmIiBmaWxsPSIjMDAwMDAwIj51c2VyczogbGlzdCZsdDtVc2VyJmd0OzwvdGV4dD48cmVjdCB5PSIyMTQuOTQ1MyIgeD0iMTUiIHdpZHRoPSI2IiBzdHlsZT0ic3Ryb2tlOiNDODI5MzA7c3Ryb2tlLXdpZHRoOjEuMDsiIGhlaWdodD0iNiIgZmlsbD0ibm9uZSIvPjx0ZXh0IHk9IjIyMS4yOTIiIHg9IjI3IiB0ZXh0TGVuZ3RoPSIxNjYiIGxlbmd0aEFkanVzdD0ic3BhY2luZyIgZm9udC1zaXplPSIxNCIgZm9udC1mYW1pbHk9InNhbnMtc2VyaWYiIGZpbGw9IiMwMDAwMDAiPnNlc3Npb25zOiBsaXN0Jmx0O1Nlc3Npb24mZ3Q7PC90ZXh0PjxsaW5lIHkyPSIyMjguNTkzOCIgeTE9IjIyOC41OTM4IiB4Mj0iMzk1IiB4MT0iOCIgc3R5bGU9InN0cm9rZTojMTgxODE4O3N0cm9rZS13aWR0aDowLjU7Ii8+PGVsbGlwc2Ugc3R5bGU9InN0cm9rZTojMDM4MDQ4O3N0cm9rZS13aWR0aDoxLjA7IiByeT0iMyIgcng9IjMiIGZpbGw9IiM4NEJFODQiIGN5PSIyNDIuMjQyMiIgY3g9IjE4Ii8+PHRleHQgeT0iMjQ1LjU4ODkiIHg9IjI3IiB0ZXh0TGVuZ3RoPSIzNDEiIGxlbmd0aEFkanVzdD0ic3BhY2luZyIgZm9udC1zaXplPSIxNCIgZm9udC1mYW1pbHk9InNhbnMtc2VyaWYiIGZpbGw9IiMwMDAwMDAiPmNyZWF0ZV91c2VyKHVzZXJuYW1lOiBzdHJpbmcsIHBhc3N3b3JkOiBzdHJpbmcpPC90ZXh0PjxlbGxpcHNlIHN0eWxlPSJzdHJva2U6IzAzODA0ODtzdHJva2Utd2lkdGg6MS4wOyIgcnk9IjMiIHJ4PSIzIiBmaWxsPSIjODRCRTg0IiBjeT0iMjU4LjUzOTEiIGN4PSIxOCIvPjx0ZXh0IHk9IjI2MS44ODU3IiB4PSIyNyIgdGV4dExlbmd0aD0iMzYzIiBsZW5ndGhBZGp1c3Q9InNwYWNpbmciIGZvbnQtc2l6ZT0iMTQiIGZvbnQtZmFtaWx5PSJzYW5zLXNlcmlmIiBmaWxsPSIjMDAwMDAwIj5jcmVhdGVfc2Vzc2lvbih1c2VybmFtZTogc3RyaW5nLCBwYXNzd29yZDogc3RyaW5nKTwvdGV4dD48ZWxsaXBzZSBzdHlsZT0ic3Ryb2tlOiMwMzgwNDg7c3Ryb2tlLXdpZHRoOjEuMDsiIHJ5PSIzIiByeD0iMyIgZmlsbD0iIzg0QkU4NCIgY3k9IjI3NC44MzU5IiBjeD0iMTgiLz48dGV4dCB5PSIyNzguMTgyNiIgeD0iMjciIHRleHRMZW5ndGg9IjEyNSIgbGVuZ3RoQWRqdXN0PSJzcGFjaW5nIiBmb250LXNpemU9IjE0IiBmb250LWZhbWlseT0ic2Fucy1zZXJpZiIgZmlsbD0iIzAwMDAwMCI+cG9zdCh0ZXh0OiBzdHJpbmcpPC90ZXh0PjxlbGxpcHNlIHN0eWxlPSJzdHJva2U6IzAzODA0ODtzdHJva2Utd2lkdGg6MS4wOyIgcnk9IjMiIHJ4PSIzIiBmaWxsPSIjODRCRTg0IiBjeT0iMjkxLjEzMjgiIGN4PSIxOCIvPjx0ZXh0IHk9IjI5NC40Nzk1IiB4PSIyNyIgdGV4dExlbmd0aD0iMTIzIiBsZW5ndGhBZGp1c3Q9InNwYWNpbmciIGZvbnQtc2l6ZT0iMTQiIGZvbnQtZmFtaWx5PSJzYW5zLXNlcmlmIiBmaWxsPSIjMDAwMDAwIj5mb2xsb3codXNlcjogVXNlcik8L3RleHQ+PGVsbGlwc2Ugc3R5bGU9InN0cm9rZTojMDM4MDQ4O3N0cm9rZS13aWR0aDoxLjA7IiByeT0iMyIgcng9IjMiIGZpbGw9IiM4NEJFODQiIGN5PSIzMDcuNDI5NyIgY3g9IjE4Ii8+PHRleHQgeT0iMzEwLjc3NjQiIHg9IjI3IiB0ZXh0TGVuZ3RoPSIxNzUiIGxlbmd0aEFkanVzdD0ic3BhY2luZyIgZm9udC1zaXplPSIxNCIgZm9udC1mYW1pbHk9InNhbnMtc2VyaWYiIGZpbGw9IiMwMDAwMDAiPnVwdm90ZV9wb3N0KHBvc3Q6IFBvc3QpPC90ZXh0PjxlbGxpcHNlIHN0eWxlPSJzdHJva2U6IzAzODA0ODtzdHJva2Utd2lkdGg6MS4wOyIgcnk9IjMiIHJ4PSIzIiBmaWxsPSIjODRCRTg0IiBjeT0iMzIzLjcyNjYiIGN4PSIxOCIvPjx0ZXh0IHk9IjMyNy4wNzMyIiB4PSIyNyIgdGV4dExlbmd0aD0iMTk1IiBsZW5ndGhBZGp1c3Q9InNwYWNpbmciIGZvbnQtc2l6ZT0iMTQiIGZvbnQtZmFtaWx5PSJzYW5zLXNlcmlmIiBmaWxsPSIjMDAwMDAwIj5kb3dudm90ZV9wb3N0KHBvc3Q6IFBvc3QpPC90ZXh0PjxlbGxpcHNlIHN0eWxlPSJzdHJva2U6IzAzODA0ODtzdHJva2Utd2lkdGg6MS4wOyIgcnk9IjMiIHJ4PSIzIiBmaWxsPSIjODRCRTg0IiBjeT0iMzQwLjAyMzQiIGN4PSIxOCIvPjx0ZXh0IHk9IjM0My4zNzAxIiB4PSIyNyIgdGV4dExlbmd0aD0iMjg5IiBsZW5ndGhBZGp1c3Q9InNwYWNpbmciIGZvbnQtc2l6ZT0iMTQiIGZvbnQtZmFtaWx5PSJzYW5zLXNlcmlmIiBmaWxsPSIjMDAwMDAwIj51cHZvdGVfY29tbWVudChjb21tZW50OiBDb21tZW50KTwvdGV4dD48ZWxsaXBzZSBzdHlsZT0ic3Ryb2tlOiMwMzgwNDg7c3Ryb2tlLXdpZHRoOjEuMDsiIHJ5PSIzIiByeD0iMyIgZmlsbD0iIzg0QkU4NCIgY3k9IjM1Ni4zMjAzIiBjeD0iMTgiLz48dGV4dCB5PSIzNTkuNjY3IiB4PSIyNyIgdGV4dExlbmd0aD0iMzA5IiBsZW5ndGhBZGp1c3Q9InNwYWNpbmciIGZvbnQtc2l6ZT0iMTQiIGZvbnQtZmFtaWx5PSJzYW5zLXNlcmlmIiBmaWxsPSIjMDAwMDAwIj5kb3dudm90ZV9jb21tZW50KGNvbW1lbnQ6IENvbW1lbnQpPC90ZXh0PjwvZz48ZyBpZD0iZWxlbV9PYnNlcnZlciI+PHJlY3QgeT0iNyIgeD0iMTM3NyIgd2lkdGg9IjE5NyIgc3R5bGU9InN0cm9rZTojMTgxODE4O3N0cm9rZS13aWR0aDowLjU7IiByeT0iMi41IiByeD0iMi41IiBpZD0iT2JzZXJ2ZXIiIGhlaWdodD0iNjQuMjk2OSIgZmlsbD0iI0YxRjFGMSIvPjxlbGxpcHNlIHN0eWxlPSJzdHJva2U6IzE4MTgxODtzdHJva2Utd2lkdGg6MS4wOyIgcnk9IjExIiByeD0iMTEiIGZpbGw9IiNCNEE3RTUiIGN5PSIyMyIgY3g9IjE0MzguNzUiLz48cGF0aCBmaWxsPSIjMDAwMDAwIiBkPSJNMTQzOS43MDMxLDE5Ljc4MTMgTDE0NDEuNDIxOSwxOS43ODEzIEMxNDQxLjgxMjUsMTkuNzgxMyAxNDQyLDE5Ljc1IDE0NDIuMTI1LDE5LjY3MTkgQzE0NDIuMzkwNiwxOS41MTU2IDE0NDIuNTMxMywxOS4yMzQ0IDE0NDIuNTMxMywxOC45Mzc1IEMxNDQyLjUzMTMsMTguNjcxOSAxNDQyLjQyMTksMTguNDA2MyAxNDQyLjE4NzUsMTguMjM0NCBDMTQ0Mi4wMTU2LDE4LjEyNSAxNDQxLjg3NSwxOC4wOTM4IDE0NDEuNDIxOSwxOC4wOTM4IEwxNDM2LjI4MTMsMTguMDkzOCBDMTQzNS44NDM4LDE4LjA5MzggMTQzNS43MTg4LDE4LjEwOTQgMTQzNS41NjI1LDE4LjIwMzEgQzE0MzUuMzEyNSwxOC4zNTk0IDE0MzUuMTU2MywxOC42NTYzIDE0MzUuMTU2MywxOC45Mzc1IEMxNDM1LjE1NjMsMTkuMjE4OCAxNDM1LjI5NjksMTkuNDY4OCAxNDM1LjUxNTYsMTkuNjQwNiBDMTQzNS42NzE5LDE5Ljc1IDE0MzUuODU5NCwxOS43ODEzIDE0MzYuMjgxMywxOS43ODEzIEwxNDM4LDE5Ljc4MTMgTDE0MzgsMjYuMjk2OSBMMTQzNi4yODEzLDI2LjI5NjkgQzE0MzUuODQzOCwyNi4yOTY5IDE0MzUuNzE4OCwyNi4zMTI1IDE0MzUuNTYyNSwyNi40MjE5IEMxNDM1LjMxMjUsMjYuNTc4MSAxNDM1LjE1NjMsMjYuODU5NCAxNDM1LjE1NjMsMjcuMTU2MyBDMTQzNS4xNTYzLDI3LjQwNjMgMTQzNS4yOTY5LDI3LjY3MTkgMTQzNS41MTU2LDI3LjgyODEgQzE0MzUuNjcxOSwyNy45NTMxIDE0MzUuODc1LDI4IDE0MzYuMjgxMywyOCBMMTQ0MS40MjE5LDI4IEMxNDQyLjE3MTksMjggMTQ0Mi41MzEzLDI3LjcxODggMTQ0Mi41MzEzLDI3LjE1NjMgQzE0NDIuNTMxMywyNi44NzUgMTQ0Mi40MjE5LDI2LjYyNSAxNDQyLjE4NzUsMjYuNDUzMSBDMTQ0Mi4wMTU2LDI2LjMyODEgMTQ0MS44NzUsMjYuMjk2OSAxNDQxLjQyMTksMjYuMjk2OSBMMTQzOS43MDMxLDI2LjI5NjkgTDE0MzkuNzAzMSwxOS43ODEzIFoiLz48dGV4dCB5PSIyNy44NDY3IiB4PSIxNDU5LjI1IiB0ZXh0TGVuZ3RoPSI2NSIgbGVuZ3RoQWRqdXN0PSJzcGFjaW5nIiBmb250LXN0eWxlPSJpdGFsaWMiIGZvbnQtc2l6ZT0iMTQiIGZvbnQtZmFtaWx5PSJzYW5zLXNlcmlmIiBmaWxsPSIjMDAwMDAwIj5PYnNlcnZlcjwvdGV4dD48bGluZSB5Mj0iMzkiIHkxPSIzOSIgeDI9IjE1NzMiIHgxPSIxMzc4IiBzdHlsZT0ic3Ryb2tlOiMxODE4MTg7c3Ryb2tlLXdpZHRoOjAuNTsiLz48bGluZSB5Mj0iNDciIHkxPSI0NyIgeDI9IjE1NzMiIHgxPSIxMzc4IiBzdHlsZT0ic3Ryb2tlOiMxODE4MTg7c3Ryb2tlLXdpZHRoOjAuNTsiLz48ZWxsaXBzZSBzdHlsZT0ic3Ryb2tlOiMwMzgwNDg7c3Ryb2tlLXdpZHRoOjEuMDsiIHJ5PSIzIiByeD0iMyIgZmlsbD0iIzg0QkU4NCIgY3k9IjYwLjY0ODQiIGN4PSIxMzg4Ii8+PHRleHQgeT0iNjMuOTk1MSIgeD0iMTM5NyIgdGV4dExlbmd0aD0iMTcxIiBsZW5ndGhBZGp1c3Q9InNwYWNpbmciIGZvbnQtc2l6ZT0iMTQiIGZvbnQtZmFtaWx5PSJzYW5zLXNlcmlmIiBmaWxsPSIjMDAwMDAwIj51cGRhdGUobmV3X3Bvc3Q6IFBvc3QpPC90ZXh0PjwvZz48ZyBpZD0iZWxlbV9OZXdzRmVlZE9ic2VydmVyIj48cmVjdCB5PSIyMDUiIHg9IjEzNDUiIHdpZHRoPSIyNjEiIHN0eWxlPSJzdHJva2U6IzE4MTgxODtzdHJva2Utd2lkdGg6MC41OyIgcnk9IjIuNSIgcng9IjIuNSIgaWQ9Ik5ld3NGZWVkT2JzZXJ2ZXIiIGhlaWdodD0iMTEzLjE4NzUiIGZpbGw9IiNGMUYxRjEiLz48ZWxsaXBzZSBzdHlsZT0ic3Ryb2tlOiMxODE4MTg7c3Ryb2tlLXdpZHRoOjEuMDsiIHJ5PSIxMSIgcng9IjExIiBmaWxsPSIjQUREMUIyIiBjeT0iMjIxIiBjeD0iMTQwMi4yNSIvPjxwYXRoIGZpbGw9IiMwMDAwMDAiIGQ9Ik0xNDA0LjU5MzgsMjE2LjY3MTkgQzE0MDMuNjU2MywyMTYuMjM0NCAxNDAzLjA2MjUsMjE2LjA5MzggMTQwMi4xODc1LDIxNi4wOTM4IEMxMzk5LjU2MjUsMjE2LjA5MzggMTM5Ny41NjI1LDIxOC4xNzE5IDEzOTcuNTYyNSwyMjAuODkwNiBMMTM5Ny41NjI1LDIyMi4wMTU2IEMxMzk3LjU2MjUsMjI0LjU5MzggMTM5OS42NzE5LDIyNi40ODQ0IDE0MDIuNTYyNSwyMjYuNDg0NCBDMTQwMy43ODEzLDIyNi40ODQ0IDE0MDQuOTM3NSwyMjYuMTg3NSAxNDA1LjY4NzUsMjI1LjY0MDYgQzE0MDYuMjY1NiwyMjUuMjM0NCAxNDA2LjU5MzgsMjI0Ljc4MTMgMTQwNi41OTM4LDIyNC4zOTA2IEMxNDA2LjU5MzgsMjIzLjkzNzUgMTQwNi4yMDMxLDIyMy41NDY5IDE0MDUuNzM0NCwyMjMuNTQ2OSBDMTQwNS41MTU2LDIyMy41NDY5IDE0MDUuMzEyNSwyMjMuNjI1IDE0MDUuMTI1LDIyMy44MTI1IEMxNDA0LjY3MTksMjI0LjI5NjkgMTQwNC42NzE5LDIyNC4yOTY5IDE0MDQuNDg0NCwyMjQuMzkwNiBDMTQwNC4wNjI1LDIyNC42NTYzIDE0MDMuMzc1LDIyNC43ODEzIDE0MDIuNjA5NCwyMjQuNzgxMyBDMTQwMC41NjI1LDIyNC43ODEzIDEzOTkuMjY1NiwyMjMuNjg3NSAxMzk5LjI2NTYsMjIxLjk4NDQgTDEzOTkuMjY1NiwyMjAuODkwNiBDMTM5OS4yNjU2LDIxOS4xMDk0IDE0MDAuNTE1NiwyMTcuNzk2OSAxNDAyLjI1LDIxNy43OTY5IEMxNDAyLjgyODEsMjE3Ljc5NjkgMTQwMy40Mzc1LDIxNy45NTMxIDE0MDMuOTA2MywyMTguMjAzMSBDMTQwNC4zOTA2LDIxOC40ODQ0IDE0MDQuNTYyNSwyMTguNzAzMSAxNDA0LjY1NjMsMjE5LjEwOTQgQzE0MDQuNzE4OCwyMTkuNTE1NiAxNDA0Ljc1LDIxOS42NDA2IDE0MDQuODkwNiwyMTkuNzY1NiBDMTQwNS4wMzEzLDIxOS45MDYzIDE0MDUuMjY1NiwyMjAuMDE1NiAxNDA1LjQ4NDQsMjIwLjAxNTYgQzE0MDUuNzUsMjIwLjAxNTYgMTQwNi4wMTU2LDIxOS44NzUgMTQwNi4xODc1LDIxOS42NTYzIEMxNDA2LjI5NjksMjE5LjUgMTQwNi4zMjgxLDIxOS4zMTI1IDE0MDYuMzI4MSwyMTguODkwNiBMMTQwNi4zMjgxLDIxNy40Njg4IEMxNDA2LjMyODEsMjE3LjAzMTMgMTQwNi4zMTI1LDIxNi45MDYzIDE0MDYuMjE4OCwyMTYuNzUgQzE0MDYuMDYyNSwyMTYuNDg0NCAxNDA1Ljc4MTMsMjE2LjM0MzggMTQwNS40ODQ0LDIxNi4zNDM4IEMxNDA1LjE4NzUsMjE2LjM0MzggMTQwNC45ODQ0LDIxNi40Mzc1IDE0MDQuNzY1NiwyMTYuNzUgTDE0MDQuNTkzOCwyMTYuNjcxOSBaIi8+PHRleHQgeT0iMjI1Ljg0NjciIHg9IjE0MjIuNzUiIHRleHRMZW5ndGg9IjEzOCIgbGVuZ3RoQWRqdXN0PSJzcGFjaW5nIiBmb250LXNpemU9IjE0IiBmb250LWZhbWlseT0ic2Fucy1zZXJpZiIgZmlsbD0iIzAwMDAwMCI+TmV3c0ZlZWRPYnNlcnZlcjwvdGV4dD48bGluZSB5Mj0iMjM3IiB5MT0iMjM3IiB4Mj0iMTYwNSIgeDE9IjEzNDYiIHN0eWxlPSJzdHJva2U6IzE4MTgxODtzdHJva2Utd2lkdGg6MC41OyIvPjxyZWN0IHk9IjI0Ny42NDg0IiB4PSIxMzUzIiB3aWR0aD0iNiIgc3R5bGU9InN0cm9rZTojQzgyOTMwO3N0cm9rZS13aWR0aDoxLjA7IiBoZWlnaHQ9IjYiIGZpbGw9Im5vbmUiLz48dGV4dCB5PSIyNTMuOTk1MSIgeD0iMTM2NSIgdGV4dExlbmd0aD0iMTQ5IiBsZW5ndGhBZGp1c3Q9InNwYWNpbmciIGZvbnQtc2l6ZT0iMTQiIGZvbnQtZmFtaWx5PSJzYW5zLXNlcmlmIiBmaWxsPSIjMDAwMDAwIj5mb2xsb3dlcnM6IGxpc3QmbHQ7VXNlciZndDs8L3RleHQ+PGxpbmUgeTI9IjI2MS4yOTY5IiB5MT0iMjYxLjI5NjkiIHgyPSIxNjA1IiB4MT0iMTM0NiIgc3R5bGU9InN0cm9rZTojMTgxODE4O3N0cm9rZS13aWR0aDowLjU7Ii8+PGVsbGlwc2Ugc3R5bGU9InN0cm9rZTojMDM4MDQ4O3N0cm9rZS13aWR0aDoxLjA7IiByeT0iMyIgcng9IjMiIGZpbGw9IiM4NEJFODQiIGN5PSIyNzQuOTQ1MyIgY3g9IjEzNTYiLz48dGV4dCB5PSIyNzguMjkyIiB4PSIxMzY1IiB0ZXh0TGVuZ3RoPSIxNzEiIGxlbmd0aEFkanVzdD0ic3BhY2luZyIgZm9udC1zaXplPSIxNCIgZm9udC1mYW1pbHk9InNhbnMtc2VyaWYiIGZpbGw9IiMwMDAwMDAiPmFkZF9mb2xsb3dlcih1c2VyOiBVc2VyKTwvdGV4dD48ZWxsaXBzZSBzdHlsZT0ic3Ryb2tlOiMwMzgwNDg7c3Ryb2tlLXdpZHRoOjEuMDsiIHJ5PSIzIiByeD0iMyIgZmlsbD0iIzg0QkU4NCIgY3k9IjI5MS4yNDIyIiBjeD0iMTM1NiIvPjx0ZXh0IHk9IjI5NC41ODg5IiB4PSIxMzY1IiB0ZXh0TGVuZ3RoPSIyMDAiIGxlbmd0aEFkanVzdD0ic3BhY2luZyIgZm9udC1zaXplPSIxNCIgZm9udC1mYW1pbHk9InNhbnMtc2VyaWYiIGZpbGw9IiMwMDAwMDAiPnJlbW92ZV9mb2xsb3dlcih1c2VyOiBVc2VyKTwvdGV4dD48ZWxsaXBzZSBzdHlsZT0ic3Ryb2tlOiMwMzgwNDg7c3Ryb2tlLXdpZHRoOjEuMDsiIHJ5PSIzIiByeD0iMyIgZmlsbD0iIzg0QkU4NCIgY3k9IjMwNy41MzkxIiBjeD0iMTM1NiIvPjx0ZXh0IHk9IjMxMC44ODU3IiB4PSIxMzY1IiB0ZXh0TGVuZ3RoPSIyMzUiIGxlbmd0aEFkanVzdD0ic3BhY2luZyIgZm9udC1zaXplPSIxNCIgZm9udC1mYW1pbHk9InNhbnMtc2VyaWYiIGZpbGw9IiMwMDAwMDAiPm5vdGlmeV9mb2xsb3dlcnMobmV3X3Bvc3Q6IFBvc3QpPC90ZXh0PjwvZz48ZyBpZD0iZWxlbV9SZXBseSI+PHJlY3QgeT0iMjM3LjUiIHg9IjI1OTMiIHdpZHRoPSI3MyIgc3R5bGU9InN0cm9rZTojMTgxODE4O3N0cm9rZS13aWR0aDowLjU7IiByeT0iMi41IiByeD0iMi41IiBpZD0iUmVwbHkiIGhlaWdodD0iNDgiIGZpbGw9IiNGMUYxRjEiLz48ZWxsaXBzZSBzdHlsZT0ic3Ryb2tlOiMxODE4MTg7c3Ryb2tlLXdpZHRoOjEuMDsiIHJ5PSIxMSIgcng9IjExIiBmaWxsPSIjQUREMUIyIiBjeT0iMjUzLjUiIGN4PSIyNjA4Ii8+PHBhdGggZmlsbD0iIzAwMDAwMCIgZD0iTTI2MTAuMzQzOCwyNDkuMTcxOSBDMjYwOS40MDYzLDI0OC43MzQ0IDI2MDguODEyNSwyNDguNTkzOCAyNjA3LjkzNzUsMjQ4LjU5MzggQzI2MDUuMzEyNSwyNDguNTkzOCAyNjAzLjMxMjUsMjUwLjY3MTkgMjYwMy4zMTI1LDI1My4zOTA2IEwyNjAzLjMxMjUsMjU0LjUxNTYgQzI2MDMuMzEyNSwyNTcuMDkzOCAyNjA1LjQyMTksMjU4Ljk4NDQgMjYwOC4zMTI1LDI1OC45ODQ0IEMyNjA5LjUzMTMsMjU4Ljk4NDQgMjYxMC42ODc1LDI1OC42ODc1IDI2MTEuNDM3NSwyNTguMTQwNiBDMjYxMi4wMTU2LDI1Ny43MzQ0IDI2MTIuMzQzOCwyNTcuMjgxMyAyNjEyLjM0MzgsMjU2Ljg5MDYgQzI2MTIuMzQzOCwyNTYuNDM3NSAyNjExLjk1MzEsMjU2LjA0NjkgMjYxMS40ODQ0LDI1Ni4wNDY5IEMyNjExLjI2NTYsMjU2LjA0NjkgMjYxMS4wNjI1LDI1Ni4xMjUgMjYxMC44NzUsMjU2LjMxMjUgQzI2MTAuNDIxOSwyNTYuNzk2OSAyNjEwLjQyMTksMjU2Ljc5NjkgMjYxMC4yMzQ0LDI1Ni44OTA2IEMyNjA5LjgxMjUsMjU3LjE1NjMgMjYwOS4xMjUsMjU3LjI4MTMgMjYwOC4zNTk0LDI1Ny4yODEzIEMyNjA2LjMxMjUsMjU3LjI4MTMgMjYwNS4wMTU2LDI1Ni4xODc1IDI2MDUuMDE1NiwyNTQuNDg0NCBMMjYwNS4wMTU2LDI1My4zOTA2IEMyNjA1LjAxNTYsMjUxLjYwOTQgMjYwNi4yNjU2LDI1MC4yOTY5IDI2MDgsMjUwLjI5NjkgQzI2MDguNTc4MSwyNTAuMjk2OSAyNjA5LjE4NzUsMjUwLjQ1MzEgMjYwOS42NTYzLDI1MC43MDMxIEMyNjEwLjE0MDYsMjUwLjk4NDQgMjYxMC4zMTI1LDI1MS4yMDMxIDI2MTAuNDA2MywyNTEuNjA5NCBDMjYxMC40Njg4LDI1Mi4wMTU2IDI2MTAuNSwyNTIuMTQwNiAyNjEwLjY0MDYsMjUyLjI2NTYgQzI2MTAuNzgxMywyNTIuNDA2MyAyNjExLjAxNTYsMjUyLjUxNTYgMjYxMS4yMzQ0LDI1Mi41MTU2IEMyNjExLjUsMjUyLjUxNTYgMjYxMS43NjU2LDI1Mi4zNzUgMjYxMS45Mzc1LDI1Mi4xNTYzIEMyNjEyLjA0NjksMjUyIDI2MTIuMDc4MSwyNTEuODEyNSAyNjEyLjA3ODEsMjUxLjM5MDYgTDI2MTIuMDc4MSwyNDkuOTY4OCBDMjYxMi4wNzgxLDI0OS41MzEzIDI2MTIuMDYyNSwyNDkuNDA2MyAyNjExLjk2ODgsMjQ5LjI1IEMyNjExLjgxMjUsMjQ4Ljk4NDQgMjYxMS41MzEzLDI0OC44NDM4IDI2MTEuMjM0NCwyNDguODQzOCBDMjYxMC45Mzc1LDI0OC44NDM4IDI2MTAuNzM0NCwyNDguOTM3NSAyNjEwLjUxNTYsMjQ5LjI1IEwyNjEwLjM0MzgsMjQ5LjE3MTkgWiIvPjx0ZXh0IHk9IjI1OC4zNDY3IiB4PSIyNjIyIiB0ZXh0TGVuZ3RoPSI0MSIgbGVuZ3RoQWRqdXN0PSJzcGFjaW5nIiBmb250LXNpemU9IjE0IiBmb250LWZhbWlseT0ic2Fucy1zZXJpZiIgZmlsbD0iIzAwMDAwMCI+UmVwbHk8L3RleHQ+PGxpbmUgeTI9IjI2OS41IiB5MT0iMjY5LjUiIHgyPSIyNjY1IiB4MT0iMjU5NCIgc3R5bGU9InN0cm9rZTojMTgxODE4O3N0cm9rZS13aWR0aDowLjU7Ii8+PGxpbmUgeTI9IjI3Ny41IiB5MT0iMjc3LjUiIHgyPSIyNjY1IiB4MT0iMjU5NCIgc3R5bGU9InN0cm9rZTojMTgxODE4O3N0cm9rZS13aWR0aDowLjU7Ii8+PC9nPjxnIGlkPSJsaW5rX1VzZXJfUG9zdCI+PHBhdGggc3R5bGU9InN0cm9rZTojMTgxODE4O3N0cm9rZS13aWR0aDoxLjA7IiBpZD0iVXNlci10by1Qb3N0IiBmaWxsPSJub25lIiBkPSJNMTEwNi4wNywxNDkuNDgyIEMxMTI2LjQzLDEzOS45MjMgMTE0Ny40OSwxMzEuNzMgMTE2OC41LDEyNiBDMTMxOS4yOSw4NC44ODQgMTcyMS4xMSwxMDUuNDI5IDE4NzEuNSwxNDggQzE4ODguMDMsMTUyLjY3OSAxOTA0LjY0LDE1OS4wMDkgMTkyMC44NSwxNjYuMzAxIi8+PHBvbHlnb24gc3R5bGU9InN0cm9rZTojMTgxODE4O3N0cm9rZS13aWR0aDoxLjA7IiBwb2ludHM9IjE5MjUuNDEsMTY4LjM4MywxOTE4Ljg3NzEsMTYxLjAxMjcsMTkyMC44NTk2LDE2Ni4zMTA4LDE5MTUuNTYxNiwxNjguMjkzMywxOTI1LjQxLDE2OC4zODMiIGZpbGw9IiMxODE4MTgiLz48dGV4dCB5PSIxMTQuMDY2OSIgeD0iMTE2OS41IiB0ZXh0TGVuZ3RoPSI0MiIgbGVuZ3RoQWRqdXN0PSJzcGFjaW5nIiBmb250LXNpemU9IjEzIiBmb250LWZhbWlseT0ic2Fucy1zZXJpZiIgZmlsbD0iIzAwMDAwMCI+YXV0aG9yPC90ZXh0PjwvZz48ZyBpZD0ibGlua19Vc2VyX0NvbW1lbnQiPjxwYXRoIHN0eWxlPSJzdHJva2U6IzE4MTgxODtzdHJva2Utd2lkdGg6MS4wOyIgaWQ9IlVzZXItdG8tQ29tbWVudCIgZmlsbD0ibm9uZSIgZD0iTTExMDYuMywxOTEuOTg0IEMxMTc4LjMsMTY1LjcyNSAxMjY0LjE5LDEzOS4wNDggMTM0NC41LDEyNiBDMTUzOS41Niw5NC4zMDkgMjA0NC4xLDkxLjYxIDIyMzMuNSwxNDggQzIyNjIuMDYsMTU2LjUwNCAyMjkwLjYxLDE3MC42NTMgMjMxNi40LDE4Ni4xMjYiLz48cG9seWdvbiBzdHlsZT0ic3Ryb2tlOiMxODE4MTg7c3Ryb2tlLXdpZHRoOjEuMDsiIHBvaW50cz0iMjMyMC44NSwxODguODI0LDIzMTUuMjE4NiwxODAuNzQzOSwyMzE2LjU3MTUsMTg2LjIzNjYsMjMxMS4wNzg4LDE4Ny41ODk1LDIzMjAuODUsMTg4LjgyNCIgZmlsbD0iIzE4MTgxOCIvPjx0ZXh0IHk9IjExNC4wNjY5IiB4PSIxMzQ1LjUiIHRleHRMZW5ndGg9IjQyIiBsZW5ndGhBZGp1c3Q9InNwYWNpbmciIGZvbnQtc2l6ZT0iMTMiIGZvbnQtZmFtaWx5PSJzYW5zLXNlcmlmIiBmaWxsPSIjMDAwMDAwIj5hdXRob3I8L3RleHQ+PC9nPjxnIGlkPSJsaW5rX1VzZXJfVXNlciI+PHBhdGggc3R5bGU9InN0cm9rZTojMTgxODE4O3N0cm9rZS13aWR0aDoxLjA7IiBpZD0iVXNlci10by1Vc2VyIiBmaWxsPSJub25lIiBkPSJNMTEwNi4xLDIzNi42ODEgQzExMjcuMTUsMjQxLjA1NSAxMTQxLDI0OS4zMjggMTE0MSwyNjEuNSBDMTE0MSwyNzIuNjI2IDExMjkuNDMsMjgwLjQ5NDIgMTExMS4zNiwyODUuMTA1MSIvPjxwb2x5Z29uIHN0eWxlPSJzdHJva2U6IzE4MTgxODtzdHJva2Utd2lkdGg6MS4wOyIgcG9pbnRzPSIxMTA2LjEsMjg2LjMxOTIsMTExNS43NzA1LDI4OC4xODUsMTExMC45NzEsMjg1LjE5MDksMTExMy45NjUyLDI4MC4zOTE0LDExMDYuMSwyODYuMzE5MiIgZmlsbD0iIzE4MTgxOCIvPjx0ZXh0IHk9IjI2Ni4wNjY5IiB4PSIxMTQ3IiB0ZXh0TGVuZ3RoPSI5NiIgbGVuZ3RoQWRqdXN0PSJzcGFjaW5nIiBmb250LXNpemU9IjEzIiBmb250LWZhbWlseT0ic2Fucy1zZXJpZiIgZmlsbD0iIzAwMDAwMCI+Zm9sbG93ZWRfdXNlcnM8L3RleHQ+PC9nPjxnIGlkPSJsaW5rX1VzZXJfTmV3c0ZlZWRPYnNlcnZlciI+PHBhdGggc3R5bGU9InN0cm9rZTojMTgxODE4O3N0cm9rZS13aWR0aDoxLjA7IiBpZD0iVXNlci10by1OZXdzRmVlZE9ic2VydmVyIiBmaWxsPSJub25lIiBkPSJNMTEwNi4yLDI2MS41IEMxMTgxLjMzLDI2MS41IDEyNjguNzgsMjYxLjUgMTMzOS43MiwyNjEuNSIvPjxwb2x5Z29uIHN0eWxlPSJzdHJva2U6IzE4MTgxODtzdHJva2Utd2lkdGg6MS4wOyIgcG9pbnRzPSIxMzQ0LjgsMjYxLjUsMTMzNS44LDI1Ny41LDEzMzkuOCwyNjEuNSwxMzM1LjgsMjY1LjUsMTM0NC44LDI2MS41IiBmaWxsPSIjMTgxODE4Ii8+PHRleHQgeT0iMjU0LjU2NjkiIHg9IjExODcuNSIgdGV4dExlbmd0aD0iNzYiIGxlbmd0aEFkanVzdD0ic3BhY2luZyIgZm9udC1zaXplPSIxMyIgZm9udC1mYW1pbHk9InNhbnMtc2VyaWYiIGZpbGw9IiMwMDAwMDAiPmltcGxlbWVudHM8L3RleHQ+PC9nPjxnIGlkPSJsaW5rX05ld3NGZWVkT2JzZXJ2ZXJfVXNlciI+PHBhdGggc3R5bGU9InN0cm9rZTojMTgxODE4O3N0cm9rZS13aWR0aDoxLjA7IiBpZD0iTmV3c0ZlZWRPYnNlcnZlci10by1Vc2VyIiBmaWxsPSJub25lIiBkPSJNMTM0NC43NiwyNzUuMzUwNSBDMTMxNS40MywyNzcuOTEwMSAxMjg0LjQzLDI4MC4xODc5IDEyNTUuNSwyODEuNSBDMTIwOC43MywyODMuNjIxNyAxMTU4LjExLDI4Mi4xMzU5IDExMTEuMzQsMjc5LjIwMjMiLz48cG9seWdvbiBzdHlsZT0ic3Ryb2tlOiMxODE4MTg7c3Ryb2tlLXdpZHRoOjEuMDsiIHBvaW50cz0iMTEwNi4yNSwyNzguODc2LDExMTQuOTY3NywyODMuNDU4NywxMTExLjIzOTIsMjc5LjIwNDUsMTExNS40OTM0LDI3NS40NzYsMTEwNi4yNSwyNzguODc2IiBmaWxsPSIjMTgxODE4Ii8+PHRleHQgeT0iMjc3LjU2NjkiIHg9IjExOTYuNSIgdGV4dExlbmd0aD0iNTgiIGxlbmd0aEFkanVzdD0ic3BhY2luZyIgZm9udC1zaXplPSIxMyIgZm9udC1mYW1pbHk9InNhbnMtc2VyaWYiIGZpbGw9IiMwMDAwMDAiPmZvbGxvd2VyczwvdGV4dD48L2c+PGcgaWQ9ImxpbmtfUG9zdF9Db21tZW50Ij48cGF0aCBzdHlsZT0ic3Ryb2tlOiMxODE4MTg7c3Ryb2tlLXdpZHRoOjEuMDsiIGlkPSJQb3N0LXRvLUNvbW1lbnQiIGZpbGw9Im5vbmUiIGQ9Ik0yMjE1LjY1LDI2MS41IEMyMjQ5LjE4LDI2MS41IDIyODQuMTYsMjYxLjUgMjMxNS40MSwyNjEuNSIvPjxwb2x5Z29uIHN0eWxlPSJzdHJva2U6IzE4MTgxODtzdHJva2Utd2lkdGg6MS4wOyIgcG9pbnRzPSIyMzIwLjc5LDI2MS41LDIzMTEuNzksMjU3LjUsMjMxNS43OSwyNjEuNSwyMzExLjc5LDI2NS41LDIzMjAuNzksMjYxLjUiIGZpbGw9IiMxODE4MTgiLz48dGV4dCB5PSIyNTQuNTY2OSIgeD0iMjIzMy43NSIgdGV4dExlbmd0aD0iNjkiIGxlbmd0aEFkanVzdD0ic3BhY2luZyIgZm9udC1zaXplPSIxMyIgZm9udC1mYW1pbHk9InNhbnMtc2VyaWYiIGZpbGw9IiMwMDAwMDAiPmNvbW1lbnRzPC90ZXh0PjwvZz48ZyBpZD0ibGlua19Db21tZW50X1JlcGx5Ij48cGF0aCBzdHlsZT0ic3Ryb2tlOiMxODE4MTg7c3Ryb2tlLXdpZHRoOjEuMDsiIGlkPSJDb21tZW50LXRvLVJlcGx5IiBmaWxsPSJub25lIiBkPSJNMjUxNC4xOSwyNjEuNSBDMjUzOS45NywyNjEuNSAyNTY2LjQ4LDI2MS41IDI1ODcuNTcsMjYxLjUiLz48cG9seWdvbiBzdHlsZT0ic3Ryb2tlOiMxODE4MTg7c3Ryb2tlLXdpZHRoOjEuMDsiIHBvaW50cz0iMjU5Mi44MSwyNjEuNSwyNTgzLjgxLDI1Ny41LDI1ODcuODEsMjYxLjUsMjU4My44MSwyNjUuNSwyNTkyLjgxLDI2MS41IiBmaWxsPSIjMTgxODE4Ii8+PHRleHQgeT0iMjU0LjU2NjkiIHg9IjI1MzIuNSIgdGV4dExlbmd0aD0iNDIiIGxlbmd0aEFkanVzdD0ic3BhY2luZyIgZm9udC1zaXplPSIxMyIgZm9udC1mYW1pbHk9InNhbnMtc2VyaWYiIGZpbGw9IiMwMDAwMDAiPnJlcGxpZXM8L3RleHQ+PC9nPjxnIGlkPSJsaW5rX05ld3NGZWVkX1Bvc3QiPjxwYXRoIHN0eWxlPSJzdHJva2U6IzE4MTgxODtzdHJva2Utd2lkdGg6MS4wOyIgaWQ9Ik5ld3NGZWVkLXRvLVBvc3QiIGZpbGw9Im5vbmUiIGQ9Ik0xODUzLjcxLDI2MS41IEMxODc0Ljk5LDI2MS41IDE4OTcuNzMsMjYxLjUgMTkyMC4xOCwyNjEuNSIvPjxwb2x5Z29uIHN0eWxlPSJzdHJva2U6IzE4MTgxODtzdHJva2Utd2lkdGg6MS4wOyIgcG9pbnRzPSIxOTI1LjI3LDI2MS41LDE5MTYuMjcsMjU3LjUsMTkyMC4yNywyNjEuNSwxOTE2LjI3LDI2NS41LDE5MjUuMjcsMjYxLjUiIGZpbGw9IiMxODE4MTgiLz48dGV4dCB5PSIyNTQuNTY2OSIgeD0iMTg3MiIgdGV4dExlbmd0aD0iMzUiIGxlbmd0aEFkanVzdD0ic3BhY2luZyIgZm9udC1zaXplPSIxMyIgZm9udC1mYW1pbHk9InNhbnMtc2VyaWYiIGZpbGw9IiMwMDAwMDAiPnBvc3RzPC90ZXh0PjwvZz48ZyBpZD0ibGlua19TZXNzaW9uX1VzZXIiPjxwYXRoIHN0eWxlPSJzdHJva2U6IzE4MTgxODtzdHJva2Utd2lkdGg6MS4wOyIgaWQ9IlNlc3Npb24tdG8tVXNlciIgZmlsbD0ibm9uZSIgZD0iTTY1My41NDUsMjYxLjUgQzY4Ni44MTcsMjYxLjUgNzI2LjQ2OCwyNjEuNSA3NjUuNDYxLDI2MS41Ii8+PHBvbHlnb24gc3R5bGU9InN0cm9rZTojMTgxODE4O3N0cm9rZS13aWR0aDoxLjA7IiBwb2ludHM9Ijc3MC43MDgsMjYxLjUsNzYxLjcwOCwyNTcuNSw3NjUuNzA4LDI2MS41LDc2MS43MDgsMjY1LjUsNzcwLjcwOCwyNjEuNSIgZmlsbD0iIzE4MTgxOCIvPjx0ZXh0IHk9IjI1NC41NjY5IiB4PSI2NzEuNzUiIHRleHRMZW5ndGg9IjgxIiBsZW5ndGhBZGp1c3Q9InNwYWNpbmciIGZvbnQtc2l6ZT0iMTMiIGZvbnQtZmFtaWx5PSJzYW5zLXNlcmlmIiBmaWxsPSIjMDAwMDAwIj5jdXJyZW50X3VzZXI8L3RleHQ+PC9nPjxnIGlkPSJsaW5rX1N5c3RlbV9Vc2VyIj48cGF0aCBzdHlsZT0ic3Ryb2tlOiMxODE4MTg7c3Ryb2tlLXdpZHRoOjEuMDsiIGlkPSJTeXN0ZW0tdG8tVXNlciIgZmlsbD0ibm9uZSIgZD0iTTM5My45NSwxNTUuOTk3IEM0NTguODQ5LDEzMS4zODEgNTMyLjQ3MywxMTUuMTA5IDYwMiwxMjYgQzY1Ny4yNjMsMTM0LjY1NyA3MTQuNjg1LDE1My42MTcgNzY2LjExNiwxNzQuNjkiLz48cG9seWdvbiBzdHlsZT0ic3Ryb2tlOiMxODE4MTg7c3Ryb2tlLXdpZHRoOjEuMDsiIHBvaW50cz0iNzcwLjc1NiwxNzYuNjAzLDc2My45NTk4LDE2OS40NzQ4LDc2Ni4xMzM0LDE3NC42OTc0LDc2MC45MTA4LDE3Ni44NzEsNzcwLjc1NiwxNzYuNjAzIiBmaWxsPSIjMTgxODE4Ii8+PHRleHQgeT0iMTE0LjA2NjkiIHg9IjU2NiIgdGV4dExlbmd0aD0iMzUiIGxlbmd0aEFkanVzdD0ic3BhY2luZyIgZm9udC1zaXplPSIxMyIgZm9udC1mYW1pbHk9InNhbnMtc2VyaWYiIGZpbGw9IiMwMDAwMDAiPnVzZXJzPC90ZXh0PjwvZz48ZyBpZD0ibGlua19TeXN0ZW1fU2Vzc2lvbiI+PHBhdGggc3R5bGU9InN0cm9rZTojMTgxODE4O3N0cm9rZS13aWR0aDoxLjA7IiBpZD0iU3lzdGVtLXRvLVNlc3Npb24iIGZpbGw9Im5vbmUiIGQ9Ik0zOTYuMjY1LDI2MS41IEM0MjYuMzEzLDI2MS41IDQ1NS45OTcsMjYxLjUgNDgyLjExNiwyNjEuNSIvPjxwb2x5Z29uIHN0eWxlPSJzdHJva2U6IzE4MTgxODtzdHJva2Utd2lkdGg6MS4wOyIgcG9pbnRzPSI0ODcuMjkxLDI2MS41LDQ3OC4yOTEsMjU3LjUsNDgyLjI5MSwyNjEuNSw0NzguMjkxLDI2NS41LDQ4Ny4yOTEsMjYxLjUiIGZpbGw9IiMxODE4MTgiLz48dGV4dCB5PSIyNTQuNTY2OSIgeD0iNDE0LjI1IiB0ZXh0TGVuZ3RoPSI1NSIgbGVuZ3RoQWRqdXN0PSJzcGFjaW5nIiBmb250LXNpemU9IjEzIiBmb250LWZhbWlseT0ic2Fucy1zZXJpZiIgZmlsbD0iIzAwMDAwMCI+c2Vzc2lvbnM8L3RleHQ+PC9nPjxnIGlkPSJsaW5rX1N5c3RlbV9OZXdzRmVlZE9ic2VydmVyIj48cGF0aCBzdHlsZT0ic3Ryb2tlOiMxODE4MTg7c3Ryb2tlLXdpZHRoOjEuMDsiIGlkPSJTeXN0ZW0tdG8tTmV3c0ZlZWRPYnNlcnZlciIgZmlsbD0ibm9uZSIgZD0iTTM5Ni4wNzYsMTY5Ljc3NiBDNDIwLjM4NSwxNjEuMTA4IDQ0NS4yMzMsMTUzLjUxNCA0NjkuNSwxNDggQzYzOC41MjQsMTA5LjU5MSAxMDgyLjcxLDEwMC44MDkgMTI0OS41LDE0OCBDMTI5My42NSwxNjAuNDkyIDEzMzkuNDEsMTgxLjY5OCAxMzc4LjEyLDIwMi40MjMiLz48cG9seWdvbiBzdHlsZT0ic3Ryb2tlOiMxODE4MTg7c3Ryb2tlLXdpZHRoOjEuMDsiIHBvaW50cz0iMTM4Mi44LDIwNC45NDcsMTM3Ni43NzQxLDE5Ny4xNTY3LDEzNzguMzk4MiwyMDIuNTc1NCwxMzcyLjk3OTUsMjA0LjE5OTUsMTM4Mi44LDIwNC45NDciIGZpbGw9IiMxODE4MTgiLz48dGV4dCB5PSIxMTQuMDY2OSIgeD0iOTQ1LjUiIHRleHRMZW5ndGg9IjQ4IiBsZW5ndGhBZGp1c3Q9InNwYWNpbmciIGZvbnQtc2l6ZT0iMTMiIGZvbnQtZmFtaWx5PSJzYW5zLXNlcmlmIiBmaWxsPSIjMDAwMDAwIj5jcmVhdGVzPC90ZXh0PjwvZz48ZyBpZD0ibGlua19OZXdzRmVlZE9ic2VydmVyX1Bvc3QiPjxwYXRoIHN0eWxlPSJzdHJva2U6IzE4MTgxODtzdHJva2Utd2lkdGg6MS4wOyIgaWQ9Ik5ld3NGZWVkT2JzZXJ2ZXItdG8tUG9zdCIgZmlsbD0ibm9uZSIgZD0iTTE1MzcuMjMsMjA0Ljk1OCBDMTU2Mi40MywxODQuNDMxIDE1OTIuODQsMTYyLjY5NiAxNjIzLjUsMTQ4IEMxNzAxLjc1LDExMC40OTIgMTczMi4zNCwxMDkuMzE5IDE4MTcuNSwxMjYgQzE4NTIuNTcsMTMyLjg3IDE4ODcuODUsMTQ2LjUyNiAxOTIwLjQ3LDE2Mi42MjciLz48cG9seWdvbiBzdHlsZT0ic3Ryb2tlOiMxODE4MTg7c3Ryb2tlLXdpZHRoOjEuMDsiIHBvaW50cz0iMTkyNS4yNiwxNjUuMDIsMTkxOS4wMDc4LDE1Ny40MTAyLDE5MjAuNzkwNCwxNjIuNzc4OCwxOTE1LjQyMTgsMTY0LjU2MTUsMTkyNS4yNiwxNjUuMDIiIGZpbGw9IiMxODE4MTgiLz48dGV4dCB5PSIxMTQuMDY2OSIgeD0iMTcxNC41IiB0ZXh0TGVuZ3RoPSIxMDIiIGxlbmd0aEFkanVzdD0ic3BhY2luZyIgZm9udC1zaXplPSIxMyIgZm9udC1mYW1pbHk9InNhbnMtc2VyaWYiIGZpbGw9IiMwMDAwMDAiPm5vdGlmeV9mb2xsb3dlcnM8L3RleHQ+PC9nPjxnIGlkPSJsaW5rX09ic2VydmVyX05ld3NGZWVkT2JzZXJ2ZXIiPjxwYXRoIHN0eWxlPSJzdHJva2U6IzE4MTgxODtzdHJva2Utd2lkdGg6MS4wOyIgaWQ9Ik9ic2VydmVyLWJhY2t0by1OZXdzRmVlZE9ic2VydmVyIiBmaWxsPSJub25lIiBkPSJNMTQ3NS41LDkxLjI1MSBDMTQ3NS41LDEyNS4yODUgMTQ3NS41LDE2OS45NTMgMTQ3NS41LDIwNC44NTQiLz48cG9seWdvbiBzdHlsZT0ic3Ryb2tlOiMxODE4MTg7c3Ryb2tlLXdpZHRoOjEuMDsiIHBvaW50cz0iMTQ2OC41LDkxLjEyNSwxNDc1LjUsNzEuMTI1LDE0ODIuNSw5MS4xMjUsMTQ2OC41LDkxLjEyNSIgZmlsbD0ibm9uZSIvPjwvZz48L2c+PC9zdmc+;" vertex="1" parent="WIyWlLk6GJQsqaUBKTNV-1">
          <mxGeometry x="-640" y="150" width="3687.3" height="510" as="geometry" />
        </mxCell>
      </root>
    </mxGraphModel>
  </diagram>
</mxfile>
